<svg width="352" height="352" viewBox="0 0 352 352" fill="none" xmlns="http://www.w3.org/2000/svg">
<g id="Group 48095721">
<g id="Group">
<path id="Vector" d="M344.363 182.276C343.136 181.048 343.13 179.052 344.363 177.819C345.596 176.586 347.587 176.586 348.82 177.819C350.048 179.046 350.053 181.043 348.82 182.276C347.587 183.509 345.596 183.509 344.363 182.276Z" fill="#FFE031"/>
<path id="Vector_2" d="M332.418 194.22C331.19 192.993 331.185 190.996 332.418 189.763C333.646 188.536 335.642 188.53 336.875 189.763C338.103 190.991 338.108 192.987 336.875 194.22C335.647 195.448 333.651 195.453 332.418 194.22Z" fill="#FFE031"/>
<path id="Vector_3" d="M320.475 206.165C319.247 204.937 319.241 202.941 320.475 201.708C321.708 200.474 323.698 200.474 324.932 201.708C326.159 202.935 326.165 204.931 324.932 206.165C323.698 207.398 321.708 207.398 320.475 206.165Z" fill="#FFE031"/>
<path id="Vector_4" d="M308.535 218.104C307.308 216.876 307.302 214.88 308.535 213.647C309.768 212.413 311.759 212.413 312.992 213.647C314.22 214.874 314.225 216.87 312.992 218.104C311.759 219.337 309.768 219.337 308.535 218.104Z" fill="#0090C3"/>
<path id="Vector_5" d="M296.592 230.048C295.364 228.821 295.359 226.825 296.592 225.591C297.819 224.364 299.816 224.358 301.049 225.591C302.276 226.819 302.282 228.815 301.049 230.048C299.816 231.282 297.825 231.282 296.592 230.048Z" fill="#FFE031"/>
<path id="Vector_6" d="M284.646 241.993C283.419 240.765 283.413 238.769 284.646 237.536C285.88 236.303 287.87 236.303 289.104 237.536C290.331 238.763 290.337 240.76 289.104 241.993C287.87 243.226 285.88 243.226 284.646 241.993Z" fill="#FFE031"/>
<path id="Vector_7" d="M272.703 253.937C271.475 252.709 271.47 250.713 272.703 249.48C273.936 248.247 275.927 248.247 277.16 249.48C278.388 250.708 278.393 252.704 277.16 253.937C275.927 255.17 273.936 255.17 272.703 253.937Z" fill="#0090C3"/>
<path id="Vector_8" d="M335.141 173.052C336.371 174.283 338.367 174.283 339.598 173.052C340.828 171.821 340.828 169.826 339.598 168.595C338.367 167.364 336.371 167.364 335.141 168.595C333.91 169.826 333.91 171.821 335.141 173.052Z" fill="#FFE031"/>
<path id="Vector_9" d="M323.195 184.997C321.968 183.769 321.962 181.773 323.195 180.54C324.423 179.312 326.419 179.306 327.652 180.54C328.88 181.767 328.886 183.763 327.652 184.997C326.425 186.224 324.423 186.224 323.195 184.997Z" stroke="#FFE031" stroke-miterlimit="10"/>
<path id="Vector_10" d="M311.252 196.941C312.483 198.172 314.478 198.172 315.709 196.941C316.94 195.71 316.94 193.715 315.709 192.484C314.478 191.253 312.483 191.253 311.252 192.484C310.021 193.715 310.021 195.71 311.252 196.941Z" fill="#FFE031"/>
<path id="Vector_11" d="M299.307 208.885C300.537 210.116 302.533 210.116 303.764 208.885C304.994 207.655 304.994 205.659 303.764 204.428C302.533 203.197 300.537 203.197 299.307 204.428C298.076 205.659 298.076 207.655 299.307 208.885Z" fill="#FFE031"/>
<path id="Vector_12" d="M287.367 220.824C286.14 219.597 286.134 217.6 287.367 216.367C288.595 215.14 290.591 215.134 291.824 216.367C293.052 217.595 293.057 219.591 291.824 220.824C290.591 222.057 288.595 222.052 287.367 220.824Z" fill="#FFE031"/>
<path id="Vector_13" d="M275.416 232.774C276.647 234.005 278.642 234.005 279.873 232.774C281.104 231.544 281.104 229.548 279.873 228.317C278.642 227.087 276.647 227.087 275.416 228.317C274.185 229.548 274.185 231.544 275.416 232.774Z" stroke="#FFE031" stroke-miterlimit="10"/>
<path id="Vector_14" d="M263.473 244.719C264.703 245.95 266.699 245.95 267.93 244.719C269.16 243.489 269.16 241.493 267.93 240.262C266.699 239.031 264.703 239.031 263.473 240.262C262.242 241.493 262.242 243.489 263.473 244.719Z" fill="#FFE031"/>
<path id="Vector_15" d="M325.91 163.823C327.141 165.053 329.136 165.053 330.367 163.823C331.598 162.592 331.598 160.596 330.367 159.365C329.136 158.135 327.141 158.135 325.91 159.365C324.679 160.596 324.679 162.592 325.91 163.823Z" fill="#FFE031"/>
<path id="Vector_16" d="M313.965 175.767C312.737 174.54 312.732 172.543 313.965 171.31C315.192 170.082 317.189 170.077 318.422 171.31C319.655 172.543 319.655 174.534 318.422 175.767C317.194 176.995 315.198 177 313.965 175.767Z" fill="#FFE031"/>
<path id="Vector_17" d="M302.021 187.712C303.252 188.943 305.248 188.943 306.479 187.712C307.709 186.481 307.709 184.485 306.479 183.255C305.248 182.024 303.252 182.024 302.021 183.255C300.791 184.485 300.791 186.481 302.021 187.712Z" fill="#FFE031"/>
<path id="Vector_18" d="M290.076 199.656C291.307 200.887 293.302 200.887 294.533 199.656C295.764 198.426 295.764 196.43 294.533 195.199C293.302 193.968 291.307 193.968 290.076 195.199C288.845 196.43 288.845 198.426 290.076 199.656Z" fill="#FFE031"/>
<path id="Vector_19" d="M278.139 211.595C276.911 210.368 276.905 208.371 278.139 207.138C279.366 205.911 281.363 205.905 282.596 207.138C283.829 208.371 283.829 210.362 282.596 211.595C281.363 212.828 279.372 212.828 278.139 211.595Z" fill="#0090C3"/>
<path id="Vector_20" d="M266.187 223.545C267.418 224.776 269.414 224.776 270.645 223.545C271.875 222.314 271.875 220.319 270.645 219.088C269.414 217.857 267.418 217.857 266.187 219.088C264.957 220.319 264.957 222.314 266.187 223.545Z" fill="#FFE031"/>
<path id="Vector_21" d="M254.244 235.49C255.475 236.721 257.47 236.721 258.701 235.49C259.932 234.259 259.932 232.264 258.701 231.033C257.47 229.802 255.475 229.802 254.244 231.033C253.013 232.264 253.013 234.259 254.244 235.49Z" fill="#FFE031"/>
<path id="Vector_22" d="M316.682 154.593C317.912 155.824 319.908 155.824 321.139 154.593C322.369 153.363 322.369 151.367 321.139 150.136C319.908 148.905 317.912 148.905 316.682 150.136C315.451 151.367 315.451 153.363 316.682 154.593Z" fill="#FFE031"/>
<path id="Vector_23" d="M304.736 166.538C303.509 165.31 303.503 163.314 304.736 162.081C305.964 160.853 307.96 160.848 309.193 162.081C310.427 163.314 310.427 165.305 309.193 166.538C307.966 167.766 305.969 167.771 304.736 166.538Z" fill="#0090C3"/>
<path id="Vector_24" d="M292.793 178.482C294.024 179.713 296.019 179.713 297.25 178.482C298.481 177.251 298.481 175.256 297.25 174.025C296.019 172.794 294.024 172.794 292.793 174.025C291.562 175.256 291.562 177.251 292.793 178.482Z" fill="#FFE031"/>
<path id="Vector_25" d="M280.848 190.427C282.078 191.658 284.074 191.658 285.305 190.427C286.535 189.196 286.535 187.201 285.305 185.97C284.074 184.739 282.078 184.739 280.848 185.97C279.617 187.201 279.617 189.196 280.848 190.427Z" stroke="#FFE031" stroke-miterlimit="10"/>
<path id="Vector_26" d="M268.908 202.366C267.681 201.138 267.675 199.142 268.908 197.909C270.136 196.681 272.132 196.676 273.365 197.909C274.598 199.142 274.598 201.133 273.365 202.366C272.132 203.599 270.141 203.599 268.908 202.366Z" fill="#FFE031"/>
<path id="Vector_27" d="M256.959 214.316C258.19 215.547 260.185 215.547 261.416 214.316C262.647 213.085 262.647 211.09 261.416 209.859C260.185 208.628 258.19 208.628 256.959 209.859C255.728 211.09 255.728 213.085 256.959 214.316Z" fill="#FFE031"/>
<path id="Vector_28" d="M245.014 226.26C246.244 227.491 248.24 227.491 249.471 226.26C250.702 225.03 250.702 223.034 249.471 221.803C248.24 220.572 246.244 220.572 245.014 221.803C243.783 223.034 243.783 225.03 245.014 226.26Z" fill="#FFE031"/>
<path id="Vector_29" d="M307.457 145.369C308.688 146.6 310.683 146.6 311.914 145.369C313.145 144.139 313.145 142.143 311.914 140.912C310.683 139.682 308.688 139.682 307.457 140.912C306.226 142.143 306.226 144.139 307.457 145.369Z" stroke="#FFE031" stroke-miterlimit="10"/>
<path id="Vector_30" d="M295.514 157.314C294.286 156.086 294.28 154.09 295.514 152.857C296.741 151.629 298.738 151.624 299.971 152.857C301.198 154.085 301.204 156.081 299.971 157.314C298.743 158.542 296.741 158.542 295.514 157.314Z" fill="#FFE031"/>
<path id="Vector_31" d="M283.568 169.259C284.799 170.489 286.795 170.489 288.025 169.259C289.256 168.028 289.256 166.032 288.025 164.802C286.795 163.571 284.799 163.571 283.568 164.802C282.338 166.032 282.338 168.028 283.568 169.259Z" fill="#FFE031"/>
<path id="Vector_32" d="M271.623 181.203C272.854 182.434 274.849 182.434 276.08 181.203C277.311 179.972 277.311 177.977 276.08 176.746C274.849 175.515 272.854 175.515 271.623 176.746C270.392 177.977 270.392 179.972 271.623 181.203Z" fill="#FFE031"/>
<path id="Vector_33" d="M259.684 193.142C258.456 191.914 258.45 189.918 259.684 188.685C260.911 187.457 262.907 187.452 264.141 188.685C265.368 189.912 265.374 191.909 264.141 193.142C262.907 194.375 260.911 194.37 259.684 193.142Z" fill="#FFE031"/>
<path id="Vector_34" d="M247.734 205.092C248.965 206.323 250.961 206.323 252.191 205.092C253.422 203.861 253.422 201.866 252.191 200.635C250.961 199.404 248.965 199.404 247.734 200.635C246.504 201.866 246.504 203.861 247.734 205.092Z" fill="#FFE031"/>
<path id="Vector_35" d="M235.791 217.037C237.022 218.267 239.017 218.267 240.248 217.037C241.479 215.806 241.479 213.81 240.248 212.58C239.017 211.349 237.022 211.349 235.791 212.58C234.56 213.81 234.56 215.806 235.791 217.037Z" fill="#FFE031"/>
</g>
<g id="Group_2">
<path id="Vector_36" d="M252.566 90.4798C251.339 89.2522 251.333 87.2559 252.566 86.0227C253.8 84.7896 255.79 84.7896 257.023 86.0227C258.251 87.2504 258.257 89.2466 257.023 90.4798C255.79 91.713 253.8 91.713 252.566 90.4798Z" fill="#FFE031"/>
<path id="Vector_37" d="M240.621 102.424C239.393 101.197 239.388 99.2005 240.621 97.9673C241.849 96.7397 243.845 96.7341 245.078 97.9673C246.306 99.1949 246.311 101.191 245.078 102.424C243.851 103.652 241.854 103.658 240.621 102.424Z" fill="#FFE031"/>
<path id="Vector_38" d="M228.678 114.369C227.45 113.141 227.445 111.145 228.678 109.912C229.911 108.679 231.902 108.679 233.135 109.912C234.362 111.14 234.368 113.136 233.135 114.369C231.902 115.602 229.911 115.602 228.678 114.369Z" fill="#FFE031"/>
<path id="Vector_39" d="M216.738 126.308C215.511 125.08 215.505 123.084 216.738 121.851C217.971 120.618 219.962 120.618 221.195 121.851C222.423 123.078 222.428 125.075 221.195 126.308C219.962 127.541 217.971 127.541 216.738 126.308Z" fill="#0090C3"/>
<path id="Vector_40" d="M204.795 138.252C203.567 137.025 203.562 135.028 204.795 133.795C206.023 132.568 208.019 132.562 209.252 133.795C210.48 135.023 210.485 137.019 209.252 138.252C208.019 139.485 206.028 139.485 204.795 138.252Z" fill="#FFE031"/>
<path id="Vector_41" d="M192.85 150.197C191.622 148.969 191.616 146.973 192.85 145.74C194.083 144.507 196.073 144.507 197.307 145.74C198.534 146.967 198.54 148.964 197.307 150.197C196.073 151.43 194.083 151.43 192.85 150.197Z" fill="#FFE031"/>
<path id="Vector_42" d="M180.904 162.141C179.677 160.914 179.671 158.918 180.904 157.684C182.137 156.451 184.128 156.451 185.361 157.684C186.589 158.912 186.595 160.908 185.361 162.141C184.128 163.375 182.137 163.375 180.904 162.141Z" fill="#0090C3"/>
<path id="Vector_43" d="M243.344 81.2562C244.575 82.4869 246.57 82.4869 247.801 81.2562C249.032 80.0254 249.032 78.0299 247.801 76.7991C246.57 75.5683 244.575 75.5683 243.344 76.7991C242.113 78.0299 242.113 80.0254 243.344 81.2562Z" fill="#FFE031"/>
<path id="Vector_44" d="M231.398 93.2005C230.171 91.9729 230.165 89.9766 231.398 88.7434C232.626 87.5158 234.622 87.5103 235.855 88.7434C237.083 89.9711 237.089 91.9673 235.855 93.2005C234.628 94.4281 232.626 94.4281 231.398 93.2005Z" stroke="#FFE031" stroke-miterlimit="10"/>
<path id="Vector_45" d="M219.455 105.145C220.686 106.376 222.681 106.376 223.912 105.145C225.143 103.914 225.143 101.919 223.912 100.688C222.681 99.4572 220.686 99.4572 219.455 100.688C218.224 101.919 218.224 103.914 219.455 105.145Z" fill="#FFE031"/>
<path id="Vector_46" d="M207.51 117.09C208.741 118.32 210.736 118.32 211.967 117.09C213.198 115.859 213.198 113.863 211.967 112.633C210.736 111.402 208.741 111.402 207.51 112.633C206.279 113.863 206.279 115.859 207.51 117.09Z" fill="#FFE031"/>
<path id="Vector_47" d="M195.57 129.029C194.343 127.801 194.337 125.805 195.57 124.572C196.798 123.344 198.794 123.338 200.027 124.572C201.255 125.799 201.261 127.795 200.027 129.029C198.794 130.262 196.798 130.256 195.57 129.029Z" fill="#FFE031"/>
<path id="Vector_48" d="M183.619 140.979C184.85 142.209 186.845 142.209 188.076 140.979C189.307 139.748 189.307 137.752 188.076 136.522C186.845 135.291 184.85 135.291 183.619 136.522C182.388 137.752 182.388 139.748 183.619 140.979Z" stroke="#FFE031" stroke-miterlimit="10"/>
<path id="Vector_49" d="M171.676 152.923C172.907 154.154 174.902 154.154 176.133 152.923C177.364 151.692 177.364 149.697 176.133 148.466C174.902 147.235 172.907 147.235 171.676 148.466C170.445 149.697 170.445 151.692 171.676 152.923Z" fill="#FFE031"/>
<path id="Vector_50" d="M234.113 72.0267C235.344 73.2575 237.34 73.2575 238.57 72.0267C239.801 70.7959 239.801 68.8004 238.57 67.5696C237.34 66.3388 235.344 66.3388 234.113 67.5696C232.882 68.8004 232.882 70.7959 234.113 72.0267Z" fill="#FFE031"/>
<path id="Vector_51" d="M222.168 83.9712C220.94 82.7436 220.935 80.7473 222.168 79.5142C223.396 78.2865 225.392 78.281 226.625 79.5142C227.858 80.7473 227.858 82.7381 226.625 83.9712C225.397 85.1989 223.401 85.2044 222.168 83.9712Z" fill="#FFE031"/>
<path id="Vector_52" d="M210.225 95.9158C211.455 97.1466 213.451 97.1466 214.682 95.9158C215.912 94.685 215.912 92.6895 214.682 91.4588C213.451 90.228 211.455 90.228 210.225 91.4588C208.994 92.6895 208.994 94.685 210.225 95.9158Z" fill="#FFE031"/>
<path id="Vector_53" d="M198.279 107.86C199.51 109.091 201.506 109.091 202.736 107.86C203.967 106.629 203.967 104.634 202.736 103.403C201.506 102.172 199.51 102.172 198.279 103.403C197.048 104.634 197.048 106.629 198.279 107.86Z" fill="#FFE031"/>
<path id="Vector_54" d="M186.342 119.799C185.114 118.572 185.109 116.575 186.342 115.342C187.569 114.114 189.566 114.109 190.799 115.342C192.032 116.575 192.032 118.566 190.799 119.799C189.566 121.032 187.575 121.032 186.342 119.799Z" fill="#0090C3"/>
<path id="Vector_55" d="M174.391 131.749C175.621 132.98 177.617 132.98 178.848 131.749C180.078 130.519 180.078 128.523 178.848 127.292C177.617 126.061 175.621 126.061 174.391 127.292C173.16 128.523 173.16 130.519 174.391 131.749Z" fill="#FFE031"/>
<path id="Vector_56" d="M162.447 143.694C163.678 144.924 165.674 144.924 166.904 143.694C168.135 142.463 168.135 140.467 166.904 139.237C165.674 138.006 163.678 138.006 162.447 139.237C161.216 140.467 161.216 142.463 162.447 143.694Z" fill="#FFE031"/>
<path id="Vector_57" d="M224.885 62.7974C226.116 64.0282 228.111 64.0282 229.342 62.7974C230.573 61.5666 230.573 59.5711 229.342 58.3404C228.111 57.1096 226.116 57.1096 224.885 58.3404C223.654 59.5711 223.654 61.5666 224.885 62.7974Z" fill="#FFE031"/>
<path id="Vector_58" d="M212.939 74.742C211.712 73.5144 211.706 71.5181 212.939 70.2849C214.167 69.0573 216.163 69.0518 217.397 70.2849C218.63 71.5181 218.63 73.5088 217.397 74.742C216.169 75.9696 214.173 75.9752 212.939 74.742Z" fill="#0090C3"/>
<path id="Vector_59" d="M200.996 86.6863C202.227 87.9171 204.222 87.9171 205.453 86.6863C206.684 85.4555 206.684 83.4601 205.453 82.2293C204.222 80.9985 202.227 80.9985 200.996 82.2293C199.765 83.4601 199.765 85.4555 200.996 86.6863Z" fill="#FFE031"/>
<path id="Vector_60" d="M189.051 98.6309C190.282 99.8617 192.277 99.8617 193.508 98.6309C194.739 97.4001 194.739 95.4046 193.508 94.1738C192.277 92.9431 190.282 92.9431 189.051 94.1738C187.82 95.4046 187.82 97.4001 189.051 98.6309Z" stroke="#FFE031" stroke-miterlimit="10"/>
<path id="Vector_61" d="M177.111 110.57C175.884 109.342 175.878 107.346 177.111 106.113C178.339 104.885 180.335 104.88 181.568 106.113C182.802 107.346 182.802 109.337 181.568 110.57C180.335 111.803 178.344 111.803 177.111 110.57Z" fill="#FFE031"/>
<path id="Vector_62" d="M165.162 122.52C166.393 123.751 168.388 123.751 169.619 122.52C170.85 121.289 170.85 119.294 169.619 118.063C168.388 116.832 166.393 116.832 165.162 118.063C163.931 119.294 163.931 121.289 165.162 122.52Z" fill="#FFE031"/>
<path id="Vector_63" d="M153.217 134.464C154.448 135.695 156.443 135.695 157.674 134.464C158.905 133.234 158.905 131.238 157.674 130.007C156.443 128.777 154.448 128.777 153.217 130.007C151.986 131.238 151.986 133.234 153.217 134.464Z" fill="#FFE031"/>
<path id="Vector_64" d="M215.66 53.5735C216.891 54.8043 218.886 54.8043 220.117 53.5735C221.348 52.3428 221.348 50.3473 220.117 49.1165C218.886 47.8857 216.891 47.8857 215.66 49.1165C214.429 50.3473 214.429 52.3428 215.66 53.5735Z" stroke="#FFE031" stroke-miterlimit="10"/>
<path id="Vector_65" d="M203.715 65.5181C202.487 64.2905 202.482 62.2942 203.715 61.0611C204.942 59.8334 206.939 59.8279 208.172 61.0611C209.4 62.2887 209.405 64.285 208.172 65.5181C206.944 66.7458 204.942 66.7458 203.715 65.5181Z" fill="#FFE031"/>
<path id="Vector_66" d="M191.771 77.4627C193.002 78.6935 194.998 78.6935 196.229 77.4627C197.459 76.2319 197.459 74.2364 196.229 73.0056C194.998 71.7748 193.002 71.7748 191.771 73.0056C190.541 74.2364 190.541 76.2319 191.771 77.4627Z" fill="#FFE031"/>
<path id="Vector_67" d="M179.826 89.407C181.057 90.6378 183.052 90.6378 184.283 89.407C185.514 88.1763 185.514 86.1808 184.283 84.95C183.052 83.7192 181.057 83.7192 179.826 84.95C178.595 86.1808 178.595 88.1763 179.826 89.407Z" fill="#FFE031"/>
<path id="Vector_68" d="M167.887 101.346C166.659 100.118 166.654 98.1221 167.887 96.889C169.114 95.6613 171.111 95.6558 172.344 96.8889C173.571 98.1166 173.577 100.113 172.344 101.346C171.111 102.579 169.114 102.574 167.887 101.346Z" fill="#FFE031"/>
<path id="Vector_69" d="M155.937 113.296C157.168 114.527 159.164 114.527 160.395 113.296C161.625 112.065 161.625 110.07 160.395 108.839C159.164 107.608 157.168 107.608 155.937 108.839C154.707 110.07 154.707 112.065 155.937 113.296Z" fill="#FFE031"/>
<path id="Vector_70" d="M143.994 125.241C145.225 126.471 147.22 126.471 148.451 125.241C149.682 124.01 149.682 122.014 148.451 120.783C147.22 119.553 145.225 119.553 143.994 120.783C142.763 122.014 142.763 124.01 143.994 125.241Z" fill="#FFE031"/>
</g>
<g id="Group_3">
<path id="Vector_71" d="M260.309 266.33C259.081 265.102 259.075 263.106 260.309 261.873C261.542 260.639 263.532 260.639 264.766 261.873C265.993 263.1 265.999 265.096 264.766 266.33C263.532 267.563 261.542 267.563 260.309 266.33Z" fill="#FFE031"/>
<path id="Vector_72" d="M248.363 278.274C247.136 277.047 247.13 275.051 248.363 273.817C249.591 272.59 251.587 272.584 252.82 273.817C254.048 275.045 254.053 277.041 252.82 278.274C251.593 279.502 249.596 279.508 248.363 278.274Z" fill="#FFE031"/>
<path id="Vector_73" d="M236.42 290.219C235.192 288.991 235.187 286.995 236.42 285.762C237.653 284.529 239.644 284.529 240.877 285.762C242.105 286.989 242.11 288.986 240.877 290.219C239.644 291.452 237.653 291.452 236.42 290.219Z" fill="#FFE031"/>
<path id="Vector_74" d="M224.48 302.158C223.253 300.93 223.247 298.934 224.48 297.701C225.714 296.468 227.704 296.468 228.938 297.701C230.165 298.928 230.171 300.925 228.938 302.158C227.704 303.391 225.714 303.391 224.48 302.158Z" fill="#0090C3"/>
<path id="Vector_75" d="M212.537 314.102C211.309 312.874 211.304 310.878 212.537 309.645C213.765 308.417 215.761 308.412 216.994 309.645C218.222 310.873 218.227 312.869 216.994 314.102C215.761 315.335 213.77 315.335 212.537 314.102Z" fill="#FFE031"/>
<path id="Vector_76" d="M200.592 326.047C199.364 324.819 199.359 322.823 200.592 321.59C201.825 320.357 203.816 320.357 205.049 321.59C206.276 322.817 206.282 324.814 205.049 326.047C203.816 327.28 201.825 327.28 200.592 326.047Z" fill="#FFE031"/>
<path id="Vector_77" d="M188.648 337.991C187.421 336.764 187.415 334.767 188.648 333.534C189.882 332.301 191.872 332.301 193.105 333.534C194.333 334.762 194.339 336.758 193.105 337.991C191.872 339.224 189.882 339.224 188.648 337.991Z" fill="#0090C3"/>
<path id="Vector_78" d="M251.086 257.106C252.317 258.337 254.312 258.337 255.543 257.106C256.774 255.875 256.774 253.88 255.543 252.649C254.312 251.418 252.317 251.418 251.086 252.649C249.855 253.88 249.855 255.875 251.086 257.106Z" fill="#FFE031"/>
<path id="Vector_79" d="M239.141 269.05C237.913 267.823 237.907 265.826 239.141 264.593C240.368 263.366 242.365 263.36 243.598 264.593C244.825 265.821 244.831 267.817 243.598 269.05C242.37 270.278 240.368 270.278 239.141 269.05Z" stroke="#FFE031" stroke-miterlimit="10"/>
<path id="Vector_80" d="M227.197 280.995C228.428 282.226 230.424 282.226 231.654 280.995C232.885 279.764 232.885 277.769 231.654 276.538C230.424 275.307 228.428 275.307 227.197 276.538C225.966 277.769 225.966 279.764 227.197 280.995Z" fill="#FFE031"/>
<path id="Vector_81" d="M215.252 292.94C216.483 294.17 218.478 294.17 219.709 292.94C220.94 291.709 220.94 289.713 219.709 288.482C218.478 287.252 216.483 287.252 215.252 288.482C214.021 289.713 214.021 291.709 215.252 292.94Z" fill="#FFE031"/>
<path id="Vector_82" d="M203.312 304.878C202.085 303.651 202.079 301.655 203.312 300.421C204.54 299.194 206.536 299.188 207.77 300.421C208.997 301.649 209.003 303.645 207.77 304.878C206.536 306.112 204.54 306.106 203.312 304.878Z" fill="#FFE031"/>
<path id="Vector_83" d="M191.361 316.829C192.592 318.059 194.588 318.059 195.818 316.829C197.049 315.598 197.049 313.602 195.818 312.372C194.588 311.141 192.592 311.141 191.361 312.372C190.131 313.602 190.131 315.598 191.361 316.829Z" stroke="#FFE031" stroke-miterlimit="10"/>
<path id="Vector_84" d="M179.418 328.773C180.649 330.004 182.644 330.004 183.875 328.773C185.106 327.542 185.106 325.547 183.875 324.316C182.644 323.085 180.649 323.085 179.418 324.316C178.187 325.547 178.187 327.542 179.418 328.773Z" fill="#FFE031"/>
<path id="Vector_85" d="M241.855 247.877C243.086 249.107 245.082 249.107 246.313 247.877C247.543 246.646 247.543 244.65 246.313 243.419C245.082 242.189 243.086 242.189 241.855 243.419C240.625 244.65 240.625 246.646 241.855 247.877Z" fill="#FFE031"/>
<path id="Vector_86" d="M229.91 259.821C228.683 258.593 228.677 256.597 229.91 255.364C231.138 254.136 233.134 254.131 234.367 255.364C235.6 256.597 235.6 258.588 234.367 259.821C233.14 261.048 231.143 261.054 229.91 259.821Z" fill="#FFE031"/>
<path id="Vector_87" d="M217.967 271.766C219.198 272.996 221.193 272.996 222.424 271.766C223.655 270.535 223.655 268.539 222.424 267.309C221.193 266.078 219.198 266.078 217.967 267.309C216.736 268.539 216.736 270.535 217.967 271.766Z" fill="#FFE031"/>
<path id="Vector_88" d="M206.021 283.71C207.252 284.941 209.248 284.941 210.479 283.71C211.709 282.479 211.709 280.484 210.479 279.253C209.248 278.022 207.252 278.022 206.021 279.253C204.791 280.484 204.791 282.479 206.021 283.71Z" fill="#FFE031"/>
<path id="Vector_89" d="M194.084 295.649C192.856 294.421 192.851 292.425 194.084 291.192C195.312 289.964 197.308 289.959 198.541 291.192C199.774 292.425 199.774 294.416 198.541 295.649C197.308 296.882 195.317 296.882 194.084 295.649Z" fill="#0090C3"/>
<path id="Vector_90" d="M182.133 307.599C183.364 308.83 185.359 308.83 186.59 307.599C187.821 306.368 187.821 304.373 186.59 303.142C185.359 301.911 183.364 301.911 182.133 303.142C180.902 304.373 180.902 306.368 182.133 307.599Z" fill="#FFE031"/>
<path id="Vector_91" d="M170.189 319.544C171.42 320.774 173.416 320.774 174.647 319.544C175.877 318.313 175.877 316.317 174.647 315.086C173.416 313.856 171.42 313.856 170.189 315.086C168.959 316.317 168.959 318.313 170.189 319.544Z" fill="#FFE031"/>
<path id="Vector_92" d="M232.627 238.647C233.858 239.878 235.853 239.878 237.084 238.647C238.315 237.416 238.315 235.421 237.084 234.19C235.853 232.959 233.858 232.959 232.627 234.19C231.396 235.421 231.396 237.416 232.627 238.647Z" fill="#FFE031"/>
<path id="Vector_93" d="M220.682 250.592C219.454 249.364 219.448 247.368 220.682 246.135C221.909 244.907 223.906 244.902 225.139 246.135C226.372 247.368 226.372 249.359 225.139 250.592C223.911 251.819 221.915 251.825 220.682 250.592Z" fill="#0090C3"/>
<path id="Vector_94" d="M208.738 262.536C209.969 263.767 211.965 263.767 213.195 262.536C214.426 261.305 214.426 259.31 213.195 258.079C211.965 256.848 209.969 256.848 208.738 258.079C207.507 259.31 207.507 261.305 208.738 262.536Z" fill="#FFE031"/>
<path id="Vector_95" d="M196.793 274.481C198.024 275.711 200.019 275.711 201.25 274.481C202.481 273.25 202.481 271.254 201.25 270.023C200.019 268.793 198.024 268.793 196.793 270.023C195.562 271.254 195.562 273.25 196.793 274.481Z" stroke="#FFE031" stroke-miterlimit="10"/>
<path id="Vector_96" d="M184.853 286.42C183.626 285.192 183.62 283.196 184.853 281.963C186.081 280.735 188.077 280.73 189.311 281.963C190.544 283.196 190.544 285.187 189.311 286.42C188.077 287.653 186.087 287.653 184.853 286.42Z" fill="#FFE031"/>
<path id="Vector_97" d="M172.904 298.37C174.135 299.6 176.131 299.6 177.361 298.37C178.592 297.139 178.592 295.143 177.361 293.913C176.131 292.682 174.135 292.682 172.904 293.913C171.673 295.143 171.673 297.139 172.904 298.37Z" fill="#FFE031"/>
<path id="Vector_98" d="M160.959 310.314C162.19 311.545 164.185 311.545 165.416 310.314C166.647 309.083 166.647 307.088 165.416 305.857C164.185 304.626 162.19 304.626 160.959 305.857C159.728 307.088 159.728 309.083 160.959 310.314Z" fill="#FFE031"/>
<path id="Vector_99" d="M223.402 229.423C224.633 230.654 226.629 230.654 227.859 229.423C229.09 228.193 229.09 226.197 227.859 224.966C226.629 223.736 224.633 223.736 223.402 224.966C222.172 226.197 222.172 228.193 223.402 229.423Z" stroke="#FFE031" stroke-miterlimit="10"/>
<path id="Vector_100" d="M211.459 241.368C210.231 240.14 210.226 238.144 211.459 236.911C212.687 235.683 214.683 235.678 215.916 236.911C217.144 238.138 217.149 240.135 215.916 241.368C214.688 242.595 212.687 242.595 211.459 241.368Z" fill="#FFE031"/>
<path id="Vector_101" d="M199.514 253.313C200.744 254.543 202.74 254.543 203.971 253.313C205.202 252.082 205.202 250.086 203.971 248.855C202.74 247.625 200.744 247.625 199.514 248.855C198.283 250.086 198.283 252.082 199.514 253.313Z" fill="#FFE031"/>
<path id="Vector_102" d="M187.568 265.257C188.799 266.488 190.795 266.488 192.025 265.257C193.256 264.026 193.256 262.031 192.025 260.8C190.795 259.569 188.799 259.569 187.568 260.8C186.338 262.031 186.338 264.026 187.568 265.257Z" fill="#FFE031"/>
<path id="Vector_103" d="M175.629 277.196C174.401 275.968 174.396 273.972 175.629 272.739C176.857 271.511 178.853 271.506 180.086 272.739C181.314 273.966 181.319 275.963 180.086 277.196C178.853 278.429 176.857 278.424 175.629 277.196Z" fill="#FFE031"/>
<path id="Vector_104" d="M163.68 289.146C164.91 290.377 166.906 290.377 168.137 289.146C169.368 287.915 169.368 285.92 168.137 284.689C166.906 283.458 164.91 283.458 163.68 284.689C162.449 285.92 162.449 287.915 163.68 289.146Z" fill="#FFE031"/>
<path id="Vector_105" d="M151.736 301.09C152.967 302.321 154.963 302.321 156.193 301.09C157.424 299.86 157.424 297.864 156.193 296.633C154.963 295.403 152.967 295.403 151.736 296.633C150.506 297.864 150.506 299.86 151.736 301.09Z" fill="#FFE031"/>
</g>
<g id="Group_4">
<path id="Vector_106" d="M168.514 174.534C167.286 173.306 167.28 171.31 168.514 170.077C169.747 168.844 171.738 168.844 172.971 170.077C174.198 171.305 174.204 173.301 172.971 174.534C171.738 175.767 169.747 175.767 168.514 174.534Z" fill="#FFE031"/>
<path id="Vector_107" d="M156.568 186.479C155.341 185.251 155.335 183.255 156.568 182.022C157.796 180.794 159.792 180.788 161.025 182.022C162.253 183.249 162.259 185.245 161.025 186.479C159.798 187.706 157.802 187.712 156.568 186.479Z" fill="#FFE031"/>
<path id="Vector_108" d="M144.625 198.423C143.397 197.195 143.392 195.199 144.625 193.966C145.858 192.733 147.849 192.733 149.082 193.966C150.31 195.193 150.315 197.19 149.082 198.423C147.849 199.656 145.858 199.656 144.625 198.423Z" fill="#FFE031"/>
<path id="Vector_109" d="M132.686 210.362C131.458 209.135 131.452 207.138 132.686 205.905C133.919 204.672 135.909 204.672 137.143 205.905C138.37 207.133 138.376 209.129 137.143 210.362C135.909 211.596 133.919 211.596 132.686 210.362Z" fill="#0090C3"/>
<path id="Vector_110" d="M120.742 222.307C119.515 221.079 119.509 219.083 120.742 217.85C121.97 216.622 123.966 216.616 125.199 217.85C126.427 219.077 126.432 221.074 125.199 222.307C123.966 223.54 121.975 223.54 120.742 222.307Z" fill="#FFE031"/>
<path id="Vector_111" d="M108.797 234.251C107.569 233.023 107.564 231.027 108.797 229.794C110.03 228.561 112.021 228.561 113.254 229.794C114.482 231.022 114.487 233.018 113.254 234.251C112.021 235.484 110.03 235.484 108.797 234.251Z" fill="#FFE031"/>
<path id="Vector_112" d="M96.8535 246.195C95.6259 244.968 95.6203 242.971 96.8535 241.738C98.0867 240.505 100.077 240.505 101.311 241.738C102.538 242.966 102.544 244.962 101.311 246.195C100.077 247.429 98.0867 247.429 96.8535 246.195Z" fill="#0090C3"/>
<path id="Vector_113" d="M159.291 165.31C160.522 166.541 162.517 166.541 163.748 165.31C164.979 164.08 164.979 162.084 163.748 160.853C162.517 159.623 160.522 159.623 159.291 160.853C158.06 162.084 158.06 164.08 159.291 165.31Z" fill="#FFE031"/>
<path id="Vector_114" d="M147.346 177.255C146.118 176.027 146.113 174.031 147.346 172.798C148.573 171.57 150.57 171.565 151.803 172.798C153.03 174.026 153.036 176.022 151.803 177.255C150.575 178.483 148.573 178.483 147.346 177.255Z" stroke="#FFE031" stroke-miterlimit="10"/>
<path id="Vector_115" d="M135.402 189.199C136.633 190.43 138.629 190.43 139.859 189.199C141.09 187.968 141.09 185.973 139.859 184.742C138.629 183.511 136.633 183.511 135.402 184.742C134.172 185.973 134.172 187.968 135.402 189.199Z" fill="#FFE031"/>
<path id="Vector_116" d="M123.457 201.144C124.688 202.374 126.683 202.374 127.914 201.144C129.145 199.913 129.145 197.917 127.914 196.687C126.683 195.456 124.688 195.456 123.457 196.687C122.226 197.917 122.226 199.913 123.457 201.144Z" fill="#FFE031"/>
<path id="Vector_117" d="M111.518 213.083C110.29 211.855 110.284 209.859 111.518 208.626C112.745 207.398 114.741 207.392 115.975 208.626C117.202 209.853 117.208 211.849 115.975 213.083C114.741 214.316 112.745 214.31 111.518 213.083Z" fill="#FFE031"/>
<path id="Vector_118" d="M99.5664 225.033C100.797 226.264 102.793 226.264 104.023 225.033C105.254 223.802 105.254 221.806 104.023 220.576C102.793 219.345 100.797 219.345 99.5664 220.576C98.3356 221.806 98.3356 223.802 99.5664 225.033Z" stroke="#FFE031" stroke-miterlimit="10"/>
<path id="Vector_119" d="M87.623 236.978C88.8538 238.208 90.8493 238.208 92.0801 236.978C93.3109 235.747 93.3109 233.751 92.0801 232.521C90.8493 231.29 88.8538 231.29 87.623 232.521C86.3922 233.751 86.3922 235.747 87.623 236.978Z" fill="#FFE031"/>
<path id="Vector_120" d="M150.061 156.081C151.291 157.312 153.287 157.312 154.518 156.081C155.748 154.85 155.748 152.855 154.518 151.624C153.287 150.393 151.291 150.393 150.061 151.624C148.83 152.855 148.83 154.85 150.061 156.081Z" fill="#FFE031"/>
<path id="Vector_121" d="M138.115 168.025C136.888 166.798 136.882 164.802 138.115 163.568C139.343 162.341 141.339 162.335 142.572 163.568C143.805 164.802 143.805 166.792 142.572 168.025C141.345 169.253 139.348 169.259 138.115 168.025Z" fill="#FFE031"/>
<path id="Vector_122" d="M126.172 179.97C127.403 181.201 129.398 181.201 130.629 179.97C131.86 178.739 131.86 176.744 130.629 175.513C129.398 174.282 127.403 174.282 126.172 175.513C124.941 176.744 124.941 178.739 126.172 179.97Z" fill="#FFE031"/>
<path id="Vector_123" d="M114.227 191.915C115.457 193.145 117.453 193.145 118.684 191.915C119.914 190.684 119.914 188.688 118.684 187.458C117.453 186.227 115.457 186.227 114.227 187.458C112.996 188.688 112.996 190.684 114.227 191.915Z" fill="#FFE031"/>
<path id="Vector_124" d="M102.289 203.854C101.061 202.626 101.056 200.63 102.289 199.397C103.517 198.169 105.513 198.163 106.746 199.397C107.979 200.63 107.979 202.62 106.746 203.854C105.513 205.087 103.522 205.087 102.289 203.854Z" fill="#0090C3"/>
<path id="Vector_125" d="M90.3379 215.804C91.5687 217.035 93.5642 217.035 94.7949 215.804C96.0257 214.573 96.0257 212.577 94.7949 211.347C93.5642 210.116 91.5687 210.116 90.3379 211.347C89.1071 212.577 89.1071 214.573 90.3379 215.804Z" fill="#FFE031"/>
<path id="Vector_126" d="M78.3945 227.748C79.6253 228.979 81.6208 228.979 82.8516 227.748C84.0824 226.517 84.0824 224.522 82.8516 223.291C81.6208 222.06 79.6253 222.06 78.3945 223.291C77.1637 224.522 77.1637 226.517 78.3945 227.748Z" fill="#FFE031"/>
<path id="Vector_127" d="M140.832 146.852C142.063 148.082 144.058 148.082 145.289 146.852C146.52 145.621 146.52 143.625 145.289 142.395C144.058 141.164 142.063 141.164 140.832 142.395C139.601 143.625 139.601 145.621 140.832 146.852Z" fill="#FFE031"/>
<path id="Vector_128" d="M128.887 158.796C127.659 157.569 127.654 155.572 128.887 154.339C130.114 153.112 132.111 153.106 133.344 154.339C134.577 155.572 134.577 157.563 133.344 158.796C132.116 160.024 130.12 160.029 128.887 158.796Z" fill="#0090C3"/>
<path id="Vector_129" d="M116.943 170.741C118.174 171.971 120.17 171.971 121.4 170.741C122.631 169.51 122.631 167.514 121.4 166.283C120.17 165.053 118.174 165.053 116.943 166.283C115.713 167.514 115.713 169.51 116.943 170.741Z" fill="#FFE031"/>
<path id="Vector_130" d="M104.998 182.685C106.229 183.916 108.224 183.916 109.455 182.685C110.686 181.454 110.686 179.459 109.455 178.228C108.224 176.997 106.229 176.997 104.998 178.228C103.767 179.459 103.767 181.454 104.998 182.685Z" stroke="#FFE031" stroke-miterlimit="10"/>
<path id="Vector_131" d="M93.0586 194.624C91.8309 193.396 91.8254 191.4 93.0586 190.167C94.2862 188.939 96.2825 188.934 97.5156 190.167C98.7488 191.4 98.7488 193.391 97.5156 194.624C96.2825 195.857 94.2917 195.857 93.0586 194.624Z" fill="#FFE031"/>
<path id="Vector_132" d="M81.1094 206.574C82.3401 207.805 84.3356 207.805 85.5664 206.574C86.7972 205.343 86.7972 203.348 85.5664 202.117C84.3356 200.886 82.3401 200.886 81.1094 202.117C79.8786 203.348 79.8786 205.343 81.1094 206.574Z" fill="#FFE031"/>
<path id="Vector_133" d="M69.164 218.519C70.3948 219.749 72.3903 219.749 73.6211 218.519C74.8519 217.288 74.8519 215.292 73.6211 214.062C72.3903 212.831 70.3948 212.831 69.164 214.062C67.9333 215.292 67.9333 217.288 69.164 218.519Z" fill="#FFE031"/>
<path id="Vector_134" d="M131.607 137.628C132.838 138.859 134.834 138.859 136.064 137.628C137.295 136.397 137.295 134.401 136.064 133.171C134.834 131.94 132.838 131.94 131.607 133.171C130.377 134.401 130.377 136.397 131.607 137.628Z" stroke="#FFE031" stroke-miterlimit="10"/>
<path id="Vector_135" d="M119.664 149.572C118.436 148.345 118.431 146.348 119.664 145.115C120.892 143.888 122.888 143.882 124.121 145.115C125.349 146.343 125.354 148.339 124.121 149.572C122.893 150.8 120.892 150.8 119.664 149.572Z" fill="#FFE031"/>
<path id="Vector_136" d="M107.719 161.517C108.95 162.748 110.945 162.748 112.176 161.517C113.407 160.286 113.407 158.291 112.176 157.06C110.945 155.829 108.95 155.829 107.719 157.06C106.488 158.291 106.488 160.286 107.719 161.517Z" fill="#FFE031"/>
<path id="Vector_137" d="M95.7734 173.461C97.0042 174.692 98.9997 174.692 100.23 173.461C101.461 172.23 101.461 170.235 100.23 169.004C98.9997 167.773 97.0042 167.773 95.7734 169.004C94.5426 170.235 94.5426 172.23 95.7734 173.461Z" fill="#FFE031"/>
<path id="Vector_138" d="M83.8339 185.4C82.6063 184.173 82.6008 182.176 83.8339 180.943C85.0616 179.716 87.0579 179.71 88.291 180.943C89.5187 182.171 89.5242 184.167 88.291 185.4C87.0579 186.633 85.0616 186.628 83.8339 185.4Z" fill="#FFE031"/>
<path id="Vector_139" d="M71.8847 197.35C73.1155 198.581 75.111 198.581 76.3418 197.35C77.5726 196.119 77.5726 194.124 76.3418 192.893C75.111 191.662 73.1155 191.662 71.8847 192.893C70.654 194.124 70.654 196.119 71.8847 197.35Z" fill="#FFE031"/>
<path id="Vector_140" d="M59.9414 209.295C61.1722 210.526 63.1677 210.526 64.3985 209.295C65.6292 208.064 65.6292 206.069 64.3985 204.838C63.1677 203.607 61.1722 203.607 59.9414 204.838C58.7106 206.069 58.7106 208.064 59.9414 209.295Z" fill="#FFE031"/>
</g>
<g id="Group_5">
<path id="Vector_141" d="M299.572 137.484C298.345 136.256 298.339 134.26 299.572 133.027C300.805 131.793 302.796 131.793 304.029 133.027C305.257 134.254 305.262 136.251 304.029 137.484C302.796 138.717 300.805 138.717 299.572 137.484Z" fill="#FFE031"/>
<path id="Vector_142" d="M287.627 149.428C286.399 148.201 286.394 146.204 287.627 144.971C288.855 143.744 290.851 143.738 292.084 144.971C293.312 146.199 293.317 148.195 292.084 149.428C290.856 150.656 288.86 150.661 287.627 149.428Z" fill="#FFE031"/>
<path id="Vector_143" d="M275.684 161.373C274.456 160.145 274.45 158.149 275.684 156.916C276.917 155.683 278.907 155.683 280.141 156.916C281.368 158.143 281.374 160.14 280.141 161.373C278.907 162.606 276.917 162.606 275.684 161.373Z" fill="#FFE031"/>
<path id="Vector_144" d="M263.744 173.312C262.516 172.084 262.511 170.088 263.744 168.855C264.977 167.622 266.968 167.622 268.201 168.855C269.429 170.082 269.434 172.079 268.201 173.312C266.968 174.545 264.977 174.545 263.744 173.312Z" fill="#0090C3"/>
<path id="Vector_145" d="M251.801 185.256C250.573 184.029 250.568 182.033 251.801 180.799C253.028 179.572 255.025 179.566 256.258 180.799C257.485 182.027 257.491 184.023 256.258 185.256C255.025 186.49 253.034 186.49 251.801 185.256Z" fill="#FFE031"/>
<path id="Vector_146" d="M239.855 197.201C238.628 195.973 238.622 193.977 239.855 192.744C241.089 191.511 243.079 191.511 244.313 192.744C245.54 193.971 245.546 195.968 244.313 197.201C243.079 198.434 241.089 198.434 239.855 197.201Z" fill="#FFE031"/>
<path id="Vector_147" d="M227.91 209.145C226.683 207.917 226.677 205.921 227.91 204.688C229.143 203.455 231.134 203.455 232.367 204.688C233.595 205.916 233.6 207.912 232.367 209.145C231.134 210.378 229.143 210.378 227.91 209.145Z" fill="#0090C3"/>
<path id="Vector_148" d="M290.35 128.26C291.58 129.491 293.576 129.491 294.807 128.26C296.037 127.029 296.037 125.034 294.807 123.803C293.576 122.572 291.58 122.572 290.35 123.803C289.119 125.034 289.119 127.029 290.35 128.26Z" fill="#FFE031"/>
<path id="Vector_149" d="M278.404 140.204C277.177 138.977 277.171 136.98 278.404 135.747C279.632 134.52 281.628 134.514 282.861 135.747C284.089 136.975 284.095 138.971 282.861 140.204C281.634 141.432 279.632 141.432 278.404 140.204Z" stroke="#FFE031" stroke-miterlimit="10"/>
<path id="Vector_150" d="M266.461 152.149C267.692 153.38 269.687 153.38 270.918 152.149C272.149 150.918 272.149 148.923 270.918 147.692C269.687 146.461 267.692 146.461 266.461 147.692C265.23 148.923 265.23 150.918 266.461 152.149Z" fill="#FFE031"/>
<path id="Vector_151" d="M254.516 164.094C255.746 165.324 257.742 165.324 258.973 164.094C260.203 162.863 260.203 160.867 258.973 159.636C257.742 158.406 255.746 158.406 254.516 159.636C253.285 160.867 253.285 162.863 254.516 164.094Z" fill="#FFE031"/>
<path id="Vector_152" d="M242.576 176.033C241.349 174.805 241.343 172.809 242.576 171.575C243.804 170.348 245.8 170.342 247.033 171.575C248.261 172.803 248.266 174.799 247.033 176.033C245.8 177.266 243.804 177.26 242.576 176.033Z" fill="#FFE031"/>
<path id="Vector_153" d="M230.625 187.982C231.856 189.213 233.851 189.213 235.082 187.982C236.313 186.752 236.313 184.756 235.082 183.525C233.851 182.295 231.856 182.295 230.625 183.525C229.394 184.756 229.394 186.752 230.625 187.982Z" stroke="#FFE031" stroke-miterlimit="10"/>
<path id="Vector_154" d="M218.682 199.927C219.912 201.158 221.908 201.158 223.139 199.927C224.369 198.696 224.369 196.701 223.139 195.47C221.908 194.239 219.912 194.239 218.682 195.47C217.451 196.701 217.451 198.696 218.682 199.927Z" fill="#FFE031"/>
<path id="Vector_155" d="M281.119 119.031C282.35 120.261 284.345 120.261 285.576 119.031C286.807 117.8 286.807 115.804 285.576 114.574C284.345 113.343 282.35 113.343 281.119 114.574C279.888 115.804 279.888 117.8 281.119 119.031Z" fill="#FFE031"/>
<path id="Vector_156" d="M269.174 130.975C267.946 129.748 267.941 127.751 269.174 126.518C270.401 125.29 272.398 125.285 273.631 126.518C274.864 127.751 274.864 129.742 273.631 130.975C272.403 132.203 270.407 132.208 269.174 130.975Z" fill="#FFE031"/>
<path id="Vector_157" d="M257.23 142.92C258.461 144.151 260.457 144.151 261.688 142.92C262.918 141.689 262.918 139.693 261.688 138.463C260.457 137.232 258.461 137.232 257.23 138.463C256 139.693 256 141.689 257.23 142.92Z" fill="#FFE031"/>
<path id="Vector_158" d="M245.285 154.864C246.516 156.095 248.511 156.095 249.742 154.864C250.973 153.633 250.973 151.638 249.742 150.407C248.511 149.176 246.516 149.176 245.285 150.407C244.054 151.638 244.054 153.633 245.285 154.864Z" fill="#FFE031"/>
<path id="Vector_159" d="M233.348 166.803C232.12 165.575 232.114 163.579 233.348 162.346C234.575 161.118 236.572 161.113 237.805 162.346C239.038 163.579 239.038 165.57 237.805 166.803C236.572 168.036 234.581 168.036 233.348 166.803Z" fill="#0090C3"/>
<path id="Vector_160" d="M221.396 178.753C222.627 179.984 224.623 179.984 225.854 178.753C227.084 177.522 227.084 175.527 225.854 174.296C224.623 173.065 222.627 173.065 221.396 174.296C220.166 175.527 220.166 177.522 221.396 178.753Z" fill="#FFE031"/>
<path id="Vector_161" d="M209.453 190.698C210.684 191.929 212.679 191.929 213.91 190.698C215.141 189.467 215.141 187.472 213.91 186.241C212.679 185.01 210.684 185.01 209.453 186.241C208.222 187.472 208.222 189.467 209.453 190.698Z" fill="#FFE031"/>
<path id="Vector_162" d="M271.891 109.801C273.121 111.032 275.117 111.032 276.348 109.801C277.578 108.571 277.578 106.575 276.348 105.344C275.117 104.113 273.121 104.113 271.891 105.344C270.66 106.575 270.66 108.571 271.891 109.801Z" fill="#FFE031"/>
<path id="Vector_163" d="M259.945 121.746C258.718 120.518 258.712 118.522 259.945 117.289C261.173 116.061 263.169 116.056 264.402 117.289C265.636 118.522 265.636 120.513 264.402 121.746C263.175 122.974 261.178 122.979 259.945 121.746Z" fill="#0090C3"/>
<path id="Vector_164" d="M248.002 133.69C249.233 134.921 251.228 134.921 252.459 133.69C253.69 132.459 253.69 130.464 252.459 129.233C251.228 128.002 249.233 128.002 248.002 129.233C246.771 130.464 246.771 132.459 248.002 133.69Z" fill="#FFE031"/>
<path id="Vector_165" d="M236.057 145.635C237.287 146.866 239.283 146.866 240.514 145.635C241.744 144.404 241.744 142.409 240.514 141.178C239.283 139.947 237.287 139.947 236.057 141.178C234.826 142.409 234.826 144.404 236.057 145.635Z" stroke="#FFE031" stroke-miterlimit="10"/>
<path id="Vector_166" d="M224.117 157.574C222.89 156.346 222.884 154.35 224.117 153.117C225.345 151.889 227.341 151.884 228.574 153.117C229.807 154.35 229.807 156.341 228.574 157.574C227.341 158.807 225.35 158.807 224.117 157.574Z" fill="#FFE031"/>
<path id="Vector_167" d="M212.168 169.524C213.399 170.755 215.394 170.755 216.625 169.524C217.856 168.293 217.856 166.297 216.625 165.067C215.394 163.836 213.399 163.836 212.168 165.067C210.937 166.297 210.937 168.293 212.168 169.524Z" fill="#FFE031"/>
<path id="Vector_168" d="M200.223 181.468C201.453 182.699 203.449 182.699 204.68 181.468C205.91 180.238 205.91 178.242 204.68 177.011C203.449 175.78 201.453 175.78 200.223 177.011C198.992 178.242 198.992 180.238 200.223 181.468Z" fill="#FFE031"/>
<path id="Vector_169" d="M262.666 100.577C263.897 101.808 265.892 101.808 267.123 100.577C268.354 99.3467 268.354 97.3512 267.123 96.1204C265.892 94.8896 263.897 94.8896 262.666 96.1204C261.435 97.3512 261.435 99.3467 262.666 100.577Z" stroke="#FFE031" stroke-miterlimit="10"/>
<path id="Vector_170" d="M250.721 112.522C249.493 111.294 249.488 109.298 250.721 108.065C251.948 106.837 253.945 106.832 255.178 108.065C256.405 109.293 256.411 111.289 255.178 112.522C253.95 113.75 251.948 113.75 250.721 112.522Z" fill="#FFE031"/>
<path id="Vector_171" d="M238.777 124.467C240.008 125.697 242.004 125.697 243.234 124.467C244.465 123.236 244.465 121.24 243.234 120.01C242.004 118.779 240.008 118.779 238.777 120.01C237.547 121.24 237.547 123.236 238.777 124.467Z" fill="#FFE031"/>
<path id="Vector_172" d="M226.832 136.411C228.063 137.642 230.058 137.642 231.289 136.411C232.52 135.18 232.52 133.185 231.289 131.954C230.058 130.723 228.063 130.723 226.832 131.954C225.601 133.185 225.601 135.18 226.832 136.411Z" fill="#FFE031"/>
<path id="Vector_173" d="M214.893 148.35C213.665 147.122 213.659 145.126 214.893 143.893C216.12 142.665 218.116 142.66 219.35 143.893C220.577 145.12 220.583 147.117 219.35 148.35C218.116 149.583 216.12 149.578 214.893 148.35Z" fill="#FFE031"/>
<path id="Vector_174" d="M202.943 160.3C204.174 161.531 206.17 161.531 207.4 160.3C208.631 159.069 208.631 157.074 207.4 155.843C206.17 154.612 204.174 154.612 202.943 155.843C201.713 157.074 201.713 159.069 202.943 160.3Z" fill="#FFE031"/>
<path id="Vector_175" d="M191 172.244C192.231 173.475 194.226 173.475 195.457 172.244C196.688 171.014 196.688 169.018 195.457 167.787C194.226 166.557 192.231 166.557 191 167.787C189.769 169.018 189.769 171.014 191 172.244Z" fill="#FFE031"/>
</g>
<g id="Group_6">
<path id="Vector_176" d="M206.117 44.0291C204.89 42.8015 204.884 40.8052 206.117 39.572C207.35 38.3389 209.341 38.3389 210.574 39.572C211.802 40.7997 211.807 42.7959 210.574 44.0291C209.341 45.2623 207.35 45.2623 206.117 44.0291Z" fill="#FFE031"/>
<path id="Vector_177" d="M194.172 55.9737C192.944 54.7461 192.939 52.7498 194.172 51.5166C195.399 50.289 197.396 50.2835 198.629 51.5166C199.857 52.7443 199.862 54.7405 198.629 55.9737C197.401 57.2013 195.405 57.2068 194.172 55.9737Z" fill="#FFE031"/>
<path id="Vector_178" d="M182.228 67.9183C181.001 66.6906 180.995 64.6944 182.228 63.4612C183.462 62.228 185.452 62.228 186.686 63.4612C187.913 64.6888 187.919 66.6851 186.686 67.9183C185.452 69.1514 183.462 69.1514 182.228 67.9183Z" fill="#FFE031"/>
<path id="Vector_179" d="M170.289 79.8572C169.061 78.6296 169.056 76.6333 170.289 75.4002C171.522 74.167 173.513 74.167 174.746 75.4002C175.974 76.6278 175.979 78.6241 174.746 79.8572C173.513 81.0904 171.522 81.0904 170.289 79.8572Z" fill="#0090C3"/>
<path id="Vector_180" d="M158.346 91.8016C157.118 90.574 157.113 88.5777 158.346 87.3445C159.573 86.1169 161.57 86.1113 162.803 87.3445C164.03 88.5721 164.036 90.5684 162.803 91.8016C161.57 93.0347 159.579 93.0347 158.346 91.8016Z" fill="#FFE031"/>
<path id="Vector_181" d="M146.4 103.746C145.173 102.519 145.167 100.522 146.4 99.2891C147.634 98.0559 149.624 98.0559 150.857 99.2891C152.085 100.517 152.091 102.513 150.857 103.746C149.624 104.979 147.634 104.979 146.4 103.746Z" fill="#FFE031"/>
<path id="Vector_182" d="M134.455 115.691C133.227 114.463 133.222 112.467 134.455 111.234C135.688 110.001 137.679 110.001 138.912 111.234C140.14 112.461 140.145 114.458 138.912 115.691C137.679 116.924 135.688 116.924 134.455 115.691Z" fill="#0090C3"/>
<path id="Vector_183" d="M196.895 34.8055C198.125 36.0363 200.121 36.0363 201.352 34.8055C202.582 33.5747 202.582 31.5792 201.352 30.3484C200.121 29.1176 198.125 29.1176 196.895 30.3484C195.664 31.5792 195.664 33.5747 196.895 34.8055Z" fill="#FFE031"/>
<path id="Vector_184" d="M184.949 46.7498C183.722 45.5222 183.716 43.5259 184.949 42.2927C186.177 41.0651 188.173 41.0596 189.406 42.2927C190.634 43.5204 190.639 45.5167 189.406 46.7498C188.179 47.9774 186.177 47.9774 184.949 46.7498Z" stroke="#FFE031" stroke-miterlimit="10"/>
<path id="Vector_185" d="M173.006 58.6944C174.237 59.9252 176.232 59.9252 177.463 58.6944C178.694 57.4636 178.694 55.4681 177.463 54.2373C176.232 53.0065 174.237 53.0065 173.006 54.2373C171.775 55.4681 171.775 57.4636 173.006 58.6944Z" fill="#FFE031"/>
<path id="Vector_186" d="M161.061 70.639C162.291 71.8698 164.287 71.8698 165.518 70.639C166.748 69.4082 166.748 67.4127 165.518 66.1819C164.287 64.9511 162.291 64.9511 161.061 66.1819C159.83 67.4127 159.83 69.4082 161.061 70.639Z" fill="#FFE031"/>
<path id="Vector_187" d="M149.121 82.578C147.893 81.3503 147.888 79.354 149.121 78.1209C150.349 76.8933 152.345 76.8877 153.578 78.1209C154.806 79.3485 154.811 81.3448 153.578 82.578C152.345 83.8111 150.349 83.8056 149.121 82.578Z" fill="#FFE031"/>
<path id="Vector_188" d="M137.17 94.5279C138.401 95.7587 140.396 95.7587 141.627 94.5279C142.858 93.2971 142.858 91.3016 141.627 90.0708C140.396 88.84 138.401 88.84 137.17 90.0708C135.939 91.3016 135.939 93.2971 137.17 94.5279Z" stroke="#FFE031" stroke-miterlimit="10"/>
<path id="Vector_189" d="M125.227 106.472C126.457 107.703 128.453 107.703 129.684 106.472C130.914 105.242 130.914 103.246 129.684 102.015C128.453 100.785 126.457 100.785 125.227 102.015C123.996 103.246 123.996 105.242 125.227 106.472Z" fill="#FFE031"/>
<path id="Vector_190" d="M187.664 25.576C188.895 26.8068 190.89 26.8068 192.121 25.576C193.352 24.3452 193.352 22.3497 192.121 21.1189C190.89 19.8881 188.895 19.8881 187.664 21.1189C186.433 22.3497 186.433 24.3452 187.664 25.576Z" fill="#FFE031"/>
<path id="Vector_191" d="M175.719 37.5206C174.491 36.2929 174.486 34.2967 175.719 33.0635C176.946 31.8359 178.943 31.8303 180.176 33.0635C181.409 34.2967 181.409 36.2874 180.176 37.5206C178.948 38.7482 176.952 38.7537 175.719 37.5206Z" fill="#FFE031"/>
<path id="Vector_192" d="M163.775 49.4651C165.006 50.6959 167.002 50.6959 168.232 49.4651C169.463 48.2344 169.463 46.2389 168.232 45.0081C167.002 43.7773 165.006 43.7773 163.775 45.0081C162.545 46.2389 162.545 48.2344 163.775 49.4651Z" fill="#FFE031"/>
<path id="Vector_193" d="M151.83 61.4095C153.061 62.6403 155.056 62.6403 156.287 61.4095C157.518 60.1787 157.518 58.1832 156.287 56.9524C155.056 55.7216 153.061 55.7216 151.83 56.9524C150.599 58.1832 150.599 60.1787 151.83 61.4095Z" fill="#FFE031"/>
<path id="Vector_194" d="M139.893 73.3485C138.665 72.1208 138.659 70.1246 139.893 68.8914C141.12 67.6638 143.116 67.6582 144.35 68.8914C145.583 70.1245 145.583 72.1153 144.35 73.3485C143.116 74.5816 141.126 74.5816 139.893 73.3485Z" fill="#0090C3"/>
<path id="Vector_195" d="M127.941 85.2986C129.172 86.5294 131.168 86.5294 132.398 85.2986C133.629 84.0679 133.629 82.0724 132.398 80.8416C131.168 79.6108 129.172 79.6108 127.941 80.8416C126.711 82.0724 126.711 84.0679 127.941 85.2986Z" fill="#FFE031"/>
<path id="Vector_196" d="M115.998 97.243C117.229 98.4738 119.224 98.4738 120.455 97.243C121.686 96.0122 121.686 94.0167 120.455 92.7859C119.224 91.5551 117.229 91.5551 115.998 92.7859C114.767 94.0167 114.767 96.0122 115.998 97.243Z" fill="#FFE031"/>
<path id="Vector_197" d="M178.436 16.3467C179.666 17.5775 181.662 17.5775 182.893 16.3467C184.123 15.116 184.123 13.1205 182.893 11.8897C181.662 10.6589 179.666 10.6589 178.436 11.8897C177.205 13.1205 177.205 15.116 178.436 16.3467Z" fill="#FFE031"/>
<path id="Vector_198" d="M166.49 28.2913C165.263 27.0637 165.257 25.0674 166.49 23.8342C167.718 22.6066 169.714 22.6011 170.947 23.8342C172.18 25.0674 172.18 27.0582 170.947 28.2913C169.72 29.5189 167.723 29.5245 166.49 28.2913Z" fill="#0090C3"/>
<path id="Vector_199" d="M154.547 40.2357C155.778 41.4664 157.773 41.4664 159.004 40.2357C160.235 39.0049 160.235 37.0094 159.004 35.7786C157.773 34.5478 155.778 34.5478 154.547 35.7786C153.316 37.0094 153.316 39.0049 154.547 40.2357Z" fill="#FFE031"/>
<path id="Vector_200" d="M142.602 52.1802C143.832 53.411 145.828 53.411 147.059 52.1802C148.289 50.9494 148.289 48.9539 147.059 47.7232C145.828 46.4924 143.832 46.4924 142.602 47.7232C141.371 48.9539 141.371 50.9494 142.602 52.1802Z" stroke="#FFE031" stroke-miterlimit="10"/>
<path id="Vector_201" d="M130.662 64.1192C129.434 62.8916 129.429 60.8953 130.662 59.6621C131.89 58.4345 133.886 58.429 135.119 59.6621C136.352 60.8953 136.352 62.8861 135.119 64.1192C133.886 65.3524 131.895 65.3524 130.662 64.1192Z" fill="#FFE031"/>
<path id="Vector_202" d="M118.713 76.0691C119.944 77.2999 121.939 77.2999 123.17 76.0691C124.401 74.8384 124.401 72.8429 123.17 71.6121C121.939 70.3813 119.944 70.3813 118.713 71.6121C117.482 72.8429 117.482 74.8384 118.713 76.0691Z" fill="#FFE031"/>
<path id="Vector_203" d="M106.768 88.0137C107.998 89.2445 109.994 89.2445 111.225 88.0137C112.455 86.7829 112.455 84.7874 111.225 83.5567C109.994 82.3259 107.998 82.3259 106.768 83.5567C105.537 84.7874 105.537 86.7829 106.768 88.0137Z" fill="#FFE031"/>
<path id="Vector_204" d="M169.211 7.12286C170.442 8.35365 172.437 8.35365 173.668 7.12286C174.899 5.89207 174.899 3.89658 173.668 2.66579C172.437 1.435 170.442 1.435 169.211 2.66579C167.98 3.89658 167.98 5.89207 169.211 7.12286Z" stroke="#FFE031" stroke-miterlimit="10"/>
<path id="Vector_205" d="M157.266 19.0674C156.038 17.8398 156.032 15.8435 157.266 14.6104C158.493 13.3827 160.49 13.3772 161.723 14.6104C162.95 15.838 162.956 17.8343 161.723 19.0674C160.495 20.2951 158.493 20.2951 157.266 19.0674Z" fill="#FFE031"/>
<path id="Vector_206" d="M145.322 31.012C146.553 32.2428 148.549 32.2428 149.779 31.012C151.01 29.7812 151.01 27.7857 149.779 26.555C148.549 25.3242 146.553 25.3242 145.322 26.555C144.091 27.7857 144.091 29.7812 145.322 31.012Z" fill="#FFE031"/>
<path id="Vector_207" d="M133.377 42.9564C134.608 44.1871 136.603 44.1871 137.834 42.9564C139.065 41.7256 139.065 39.7301 137.834 38.4993C136.603 37.2685 134.608 37.2685 133.377 38.4993C132.146 39.7301 132.146 41.7256 133.377 42.9564Z" fill="#FFE031"/>
<path id="Vector_208" d="M121.437 54.8953C120.21 53.6677 120.204 51.6714 121.437 50.4383C122.665 49.2106 124.661 49.2051 125.895 50.4383C127.122 51.6659 127.128 53.6622 125.895 54.8953C124.661 56.1285 122.665 56.123 121.437 54.8953Z" fill="#FFE031"/>
<path id="Vector_209" d="M109.488 66.8455C110.719 68.0763 112.715 68.0763 113.945 66.8455C115.176 65.6147 115.176 63.6192 113.945 62.3884C112.715 61.1577 110.719 61.1577 109.488 62.3884C108.257 63.6192 108.257 65.6147 109.488 66.8455Z" fill="#FFE031"/>
<path id="Vector_210" d="M97.5449 78.7899C98.7757 80.0206 100.771 80.0206 102.002 78.7899C103.233 77.5591 103.233 75.5636 102.002 74.3328C100.771 73.102 98.7757 73.102 97.5449 74.3328C96.3141 75.5636 96.3141 77.5591 97.5449 78.7899Z" fill="#FFE031"/>
</g>
<g id="Group_7">
<path id="Vector_211" d="M215.52 221.538C214.292 220.311 214.286 218.314 215.52 217.081C216.753 215.848 218.743 215.848 219.977 217.081C221.204 218.309 221.21 220.305 219.977 221.538C218.743 222.771 216.753 222.771 215.52 221.538Z" fill="#FFE031"/>
<path id="Vector_212" d="M203.574 233.482C202.347 232.255 202.341 230.259 203.574 229.025C204.802 227.798 206.798 227.792 208.031 229.025C209.259 230.253 209.264 232.249 208.031 233.482C206.804 234.71 204.807 234.716 203.574 233.482Z" fill="#FFE031"/>
<path id="Vector_213" d="M191.631 245.427C190.403 244.199 190.398 242.203 191.631 240.97C192.864 239.737 194.855 239.737 196.088 240.97C197.316 242.197 197.321 244.194 196.088 245.427C194.855 246.66 192.864 246.66 191.631 245.427Z" fill="#FFE031"/>
<path id="Vector_214" d="M179.691 257.366C178.464 256.138 178.458 254.142 179.691 252.909C180.925 251.676 182.915 251.676 184.148 252.909C185.376 254.136 185.382 256.133 184.148 257.366C182.915 258.599 180.925 258.599 179.691 257.366Z" fill="#0090C3"/>
<path id="Vector_215" d="M167.748 269.311C166.52 268.083 166.515 266.087 167.748 264.854C168.976 263.626 170.972 263.62 172.205 264.854C173.433 266.081 173.438 268.077 172.205 269.311C170.972 270.544 168.981 270.544 167.748 269.311Z" fill="#FFE031"/>
<path id="Vector_216" d="M155.803 281.255C154.575 280.027 154.57 278.031 155.803 276.798C157.036 275.565 159.027 275.565 160.26 276.798C161.487 278.026 161.493 280.022 160.26 281.255C159.027 282.488 157.036 282.488 155.803 281.255Z" fill="#FFE031"/>
<path id="Vector_217" d="M143.859 293.199C142.632 291.972 142.626 289.975 143.859 288.742C145.093 287.509 147.083 287.509 148.316 288.742C149.544 289.97 149.55 291.966 148.316 293.199C147.083 294.432 145.093 294.432 143.859 293.199Z" fill="#0090C3"/>
<path id="Vector_218" d="M206.297 212.314C207.528 213.545 209.523 213.545 210.754 212.314C211.985 211.083 211.985 209.088 210.754 207.857C209.523 206.626 207.528 206.626 206.297 207.857C205.066 209.088 205.066 211.083 206.297 212.314Z" fill="#FFE031"/>
<path id="Vector_219" d="M194.352 224.259C193.124 223.031 193.118 221.035 194.352 219.802C195.579 218.574 197.575 218.569 198.809 219.802C200.036 221.029 200.042 223.026 198.809 224.259C197.581 225.486 195.579 225.486 194.352 224.259Z" stroke="#FFE031" stroke-miterlimit="10"/>
<path id="Vector_220" d="M182.408 236.203C183.639 237.434 185.634 237.434 186.865 236.203C188.096 234.972 188.096 232.977 186.865 231.746C185.634 230.515 183.639 230.515 182.408 231.746C181.177 232.977 181.177 234.972 182.408 236.203Z" fill="#FFE031"/>
<path id="Vector_221" d="M170.463 248.148C171.694 249.378 173.689 249.378 174.92 248.148C176.151 246.917 176.151 244.921 174.92 243.69C173.689 242.46 171.694 242.46 170.463 243.69C169.232 244.921 169.232 246.917 170.463 248.148Z" fill="#FFE031"/>
<path id="Vector_222" d="M158.523 260.086C157.296 258.859 157.29 256.863 158.523 255.629C159.751 254.402 161.747 254.396 162.98 255.629C164.208 256.857 164.214 258.853 162.98 260.086C161.747 261.32 159.751 261.314 158.523 260.086Z" fill="#FFE031"/>
<path id="Vector_223" d="M146.572 272.037C147.803 273.267 149.799 273.267 151.029 272.037C152.26 270.806 152.26 268.81 151.029 267.58C149.799 266.349 147.803 266.349 146.572 267.58C145.341 268.81 145.341 270.806 146.572 272.037Z" stroke="#FFE031" stroke-miterlimit="10"/>
<path id="Vector_224" d="M134.629 283.981C135.86 285.212 137.855 285.212 139.086 283.981C140.317 282.75 140.317 280.755 139.086 279.524C137.855 278.293 135.86 278.293 134.629 279.524C133.398 280.755 133.398 282.75 134.629 283.981Z" fill="#FFE031"/>
<path id="Vector_225" d="M197.066 203.085C198.297 204.316 200.293 204.316 201.523 203.085C202.754 201.854 202.754 199.859 201.523 198.628C200.293 197.397 198.297 197.397 197.066 198.628C195.836 199.859 195.836 201.854 197.066 203.085Z" fill="#FFE031"/>
<path id="Vector_226" d="M185.121 215.029C183.893 213.802 183.888 211.805 185.121 210.572C186.349 209.345 188.345 209.339 189.578 210.572C190.811 211.805 190.811 213.796 189.578 215.029C188.351 216.257 186.354 216.263 185.121 215.029Z" fill="#FFE031"/>
<path id="Vector_227" d="M173.178 226.974C174.409 228.204 176.404 228.204 177.635 226.974C178.866 225.743 178.866 223.747 177.635 222.517C176.404 221.286 174.409 221.286 173.178 222.517C171.947 223.747 171.947 225.743 173.178 226.974Z" fill="#FFE031"/>
<path id="Vector_228" d="M161.232 238.919C162.463 240.149 164.459 240.149 165.689 238.919C166.92 237.688 166.92 235.692 165.689 234.461C164.459 233.231 162.463 233.231 161.232 234.461C160.002 235.692 160.002 237.688 161.232 238.919Z" fill="#FFE031"/>
<path id="Vector_229" d="M149.295 250.857C148.067 249.63 148.062 247.634 149.295 246.4C150.523 245.173 152.519 245.167 153.752 246.4C154.985 247.634 154.985 249.624 153.752 250.857C152.519 252.091 150.528 252.091 149.295 250.857Z" fill="#0090C3"/>
<path id="Vector_230" d="M137.344 262.807C138.575 264.038 140.57 264.038 141.801 262.807C143.032 261.576 143.032 259.581 141.801 258.35C140.57 257.119 138.575 257.119 137.344 258.35C136.113 259.581 136.113 261.576 137.344 262.807Z" fill="#FFE031"/>
<path id="Vector_231" d="M125.4 274.752C126.631 275.983 128.627 275.983 129.857 274.752C131.088 273.521 131.088 271.526 129.857 270.295C128.627 269.064 126.631 269.064 125.4 270.295C124.17 271.526 124.17 273.521 125.4 274.752Z" fill="#FFE031"/>
<path id="Vector_232" d="M187.838 193.856C189.069 195.086 191.064 195.086 192.295 193.856C193.526 192.625 193.526 190.629 192.295 189.398C191.064 188.168 189.069 188.168 187.838 189.398C186.607 190.629 186.607 192.625 187.838 193.856Z" fill="#FFE031"/>
<path id="Vector_233" d="M175.893 205.8C174.665 204.572 174.659 202.576 175.893 201.343C177.12 200.115 179.116 200.11 180.35 201.343C181.583 202.576 181.583 204.567 180.35 205.8C179.122 207.027 177.126 207.033 175.893 205.8Z" fill="#0090C3"/>
<path id="Vector_234" d="M163.949 217.745C165.18 218.975 167.175 218.975 168.406 217.745C169.637 216.514 169.637 214.518 168.406 213.288C167.175 212.057 165.18 212.057 163.949 213.288C162.718 214.518 162.718 216.514 163.949 217.745Z" fill="#FFE031"/>
<path id="Vector_235" d="M152.004 229.689C153.235 230.92 155.23 230.92 156.461 229.689C157.692 228.458 157.692 226.463 156.461 225.232C155.23 224.001 153.235 224.001 152.004 225.232C150.773 226.463 150.773 228.458 152.004 229.689Z" stroke="#FFE031" stroke-miterlimit="10"/>
<path id="Vector_236" d="M140.064 241.628C138.837 240.4 138.831 238.404 140.064 237.171C141.292 235.943 143.288 235.938 144.522 237.171C145.755 238.404 145.755 240.395 144.521 241.628C143.288 242.861 141.298 242.861 140.064 241.628Z" fill="#FFE031"/>
<path id="Vector_237" d="M128.115 253.578C129.346 254.809 131.341 254.809 132.572 253.578C133.803 252.347 133.803 250.352 132.572 249.121C131.341 247.89 129.346 247.89 128.115 249.121C126.884 250.352 126.884 252.347 128.115 253.578Z" fill="#FFE031"/>
<path id="Vector_238" d="M116.17 265.523C117.401 266.753 119.396 266.753 120.627 265.523C121.858 264.292 121.858 262.296 120.627 261.065C119.396 259.835 117.401 259.835 116.17 261.065C114.939 262.296 114.939 264.292 116.17 265.523Z" fill="#FFE031"/>
<path id="Vector_239" d="M178.613 184.632C179.844 185.862 181.84 185.862 183.07 184.632C184.301 183.401 184.301 181.405 183.07 180.175C181.84 178.944 179.844 178.944 178.613 180.175C177.382 181.405 177.382 183.401 178.613 184.632Z" stroke="#FFE031" stroke-miterlimit="10"/>
<path id="Vector_240" d="M166.67 196.576C165.442 195.349 165.437 193.352 166.67 192.119C167.898 190.892 169.894 190.886 171.127 192.119C172.355 193.347 172.36 195.343 171.127 196.576C169.899 197.804 167.898 197.804 166.67 196.576Z" fill="#FFE031"/>
<path id="Vector_241" d="M154.725 208.521C155.955 209.751 157.951 209.751 159.182 208.521C160.412 207.29 160.412 205.294 159.182 204.063C157.951 202.833 155.955 202.833 154.725 204.063C153.494 205.294 153.494 207.29 154.725 208.521Z" fill="#FFE031"/>
<path id="Vector_242" d="M142.779 220.465C144.01 221.696 146.006 221.696 147.236 220.465C148.467 219.235 148.467 217.239 147.236 216.008C146.006 214.778 144.01 214.778 142.779 216.008C141.548 217.239 141.548 219.235 142.779 220.465Z" fill="#FFE031"/>
<path id="Vector_243" d="M130.84 232.404C129.612 231.177 129.607 229.18 130.84 227.947C132.067 226.72 134.064 226.714 135.297 227.947C136.525 229.175 136.53 231.171 135.297 232.404C134.064 233.638 132.067 233.632 130.84 232.404Z" fill="#FFE031"/>
<path id="Vector_244" d="M118.891 244.354C120.121 245.585 122.117 245.585 123.348 244.354C124.578 243.123 124.578 241.128 123.348 239.897C122.117 238.666 120.121 238.666 118.891 239.897C117.66 241.128 117.66 243.123 118.891 244.354Z" fill="#FFE031"/>
<path id="Vector_245" d="M106.947 256.299C108.178 257.53 110.174 257.53 111.404 256.299C112.635 255.068 112.635 253.073 111.404 251.842C110.174 250.611 108.178 250.611 106.947 251.842C105.716 253.073 105.716 255.068 106.947 256.299Z" fill="#FFE031"/>
</g>
<g id="Group_8">
<path id="Vector_246" d="M122.062 128.083C120.835 126.855 120.829 124.859 122.062 123.626C123.296 122.393 125.286 122.393 126.52 123.626C127.747 124.853 127.753 126.85 126.52 128.083C125.286 129.316 123.296 129.316 122.062 128.083Z" fill="#FFE031"/>
<path id="Vector_247" d="M110.117 140.027C108.89 138.8 108.884 136.803 110.117 135.57C111.345 134.343 113.341 134.337 114.574 135.57C115.802 136.798 115.807 138.794 114.574 140.027C113.347 141.255 111.35 141.261 110.117 140.027Z" fill="#FFE031"/>
<path id="Vector_248" d="M98.1738 151.972C96.9462 150.744 96.9406 148.748 98.1738 147.515C99.407 146.282 101.398 146.282 102.631 147.515C103.859 148.743 103.864 150.739 102.631 151.972C101.398 153.205 99.407 153.205 98.1738 151.972Z" fill="#FFE031"/>
<path id="Vector_249" d="M86.2344 163.911C85.0067 162.683 85.0012 160.687 86.2344 159.454C87.4675 158.221 89.4583 158.221 90.6914 159.454C91.9191 160.682 91.9246 162.678 90.6914 163.911C89.4583 165.144 87.4675 165.144 86.2344 163.911Z" fill="#0090C3"/>
<path id="Vector_250" d="M74.291 175.855C73.0634 174.628 73.0578 172.631 74.291 171.398C75.5186 170.171 77.5149 170.165 78.7481 171.398C79.9757 172.626 79.9812 174.622 78.748 175.855C77.5149 177.088 75.5241 177.088 74.291 175.855Z" fill="#FFE031"/>
<path id="Vector_251" d="M62.3457 187.8C61.1181 186.572 61.1125 184.576 62.3457 183.343C63.5788 182.11 65.5696 182.11 66.8028 183.343C68.0304 184.57 68.0359 186.567 66.8028 187.8C65.5696 189.033 63.5788 189.033 62.3457 187.8Z" fill="#FFE031"/>
<path id="Vector_252" d="M50.4004 199.744C49.1727 198.517 49.1672 196.52 50.4004 195.287C51.6335 194.054 53.6243 194.054 54.8574 195.287C56.0851 196.515 56.0906 198.511 54.8574 199.744C53.6243 200.977 51.6335 200.977 50.4004 199.744Z" fill="#0090C3"/>
<path id="Vector_253" d="M112.84 118.859C114.071 120.09 116.066 120.09 117.297 118.859C118.528 117.628 118.528 115.633 117.297 114.402C116.066 113.171 114.071 113.171 112.84 114.402C111.609 115.633 111.609 117.628 112.84 118.859Z" fill="#FFE031"/>
<path id="Vector_254" d="M100.895 130.804C99.6669 129.576 99.6614 127.58 100.895 126.346C102.122 125.119 104.118 125.113 105.352 126.346C106.579 127.574 106.585 129.57 105.352 130.804C104.124 132.031 102.122 132.031 100.895 130.804Z" stroke="#FFE031" stroke-miterlimit="10"/>
<path id="Vector_255" d="M88.9512 142.748C90.1819 143.979 92.1774 143.979 93.4082 142.748C94.639 141.517 94.639 139.522 93.4082 138.291C92.1774 137.06 90.1819 137.06 88.9512 138.291C87.7204 139.522 87.7204 141.517 88.9512 142.748Z" fill="#FFE031"/>
<path id="Vector_256" d="M77.0058 154.693C78.2366 155.923 80.2321 155.923 81.4629 154.693C82.6937 153.462 82.6937 151.466 81.4629 150.236C80.2321 149.005 78.2366 149.005 77.0058 150.236C75.7751 151.466 75.7751 153.462 77.0058 154.693Z" fill="#FFE031"/>
<path id="Vector_257" d="M65.0664 166.632C63.8387 165.404 63.8332 163.408 65.0664 162.175C66.294 160.947 68.2903 160.941 69.5235 162.175C70.7511 163.402 70.7566 165.399 69.5234 166.632C68.2903 167.865 66.294 167.859 65.0664 166.632Z" fill="#FFE031"/>
<path id="Vector_258" d="M53.1152 178.582C54.346 179.812 56.3415 179.812 57.5723 178.582C58.8031 177.351 58.8031 175.355 57.5723 174.125C56.3415 172.894 54.346 172.894 53.1152 174.125C51.8844 175.355 51.8844 177.351 53.1152 178.582Z" stroke="#FFE031" stroke-miterlimit="10"/>
<path id="Vector_259" d="M41.1719 190.526C42.4026 191.757 44.3981 191.757 45.6289 190.526C46.8597 189.295 46.8597 187.3 45.6289 186.069C44.3981 184.838 42.4026 184.838 41.1719 186.069C39.9411 187.3 39.9411 189.295 41.1719 190.526Z" fill="#FFE031"/>
<path id="Vector_260" d="M103.609 109.63C104.84 110.86 106.836 110.86 108.066 109.63C109.297 108.399 109.297 106.403 108.066 105.173C106.836 103.942 104.84 103.942 103.609 105.173C102.379 106.403 102.379 108.399 103.609 109.63Z" fill="#FFE031"/>
<path id="Vector_261" d="M91.664 121.574C90.4364 120.347 90.4309 118.35 91.664 117.117C92.8917 115.89 94.888 115.884 96.1211 117.117C97.3543 118.35 97.3543 120.341 96.1211 121.574C94.8935 122.802 92.8972 122.807 91.664 121.574Z" fill="#FFE031"/>
<path id="Vector_262" d="M79.7207 133.519C80.9515 134.75 82.947 134.75 84.1778 133.519C85.4085 132.288 85.4085 130.293 84.1778 129.062C82.947 127.831 80.9515 127.831 79.7207 129.062C78.4899 130.293 78.4899 132.288 79.7207 133.519Z" fill="#FFE031"/>
<path id="Vector_263" d="M67.7754 145.463C69.0062 146.694 71.0017 146.694 72.2324 145.463C73.4632 144.232 73.4632 142.237 72.2324 141.006C71.0017 139.775 69.0062 139.775 67.7754 141.006C66.5446 142.237 66.5446 144.232 67.7754 145.463Z" fill="#FFE031"/>
<path id="Vector_264" d="M55.8379 157.402C54.6102 156.175 54.6047 154.178 55.8379 152.945C57.0655 151.717 59.0618 151.712 60.2949 152.945C61.5281 154.178 61.5281 156.169 60.2949 157.402C59.0618 158.635 57.071 158.635 55.8379 157.402Z" fill="#0090C3"/>
<path id="Vector_265" d="M43.8867 169.352C45.1175 170.583 47.113 170.583 48.3438 169.352C49.5746 168.122 49.5746 166.126 48.3438 164.895C47.113 163.664 45.1175 163.664 43.8867 164.895C42.6559 166.126 42.6559 168.122 43.8867 169.352Z" fill="#FFE031"/>
<path id="Vector_266" d="M31.9433 181.297C33.1741 182.527 35.1696 182.527 36.4004 181.297C37.6312 180.066 37.6312 178.07 36.4004 176.84C35.1696 175.609 33.1741 175.609 31.9433 176.84C30.7126 178.07 30.7126 180.066 31.9433 181.297Z" fill="#FFE031"/>
<path id="Vector_267" d="M94.3808 100.4C95.6116 101.631 97.6071 101.631 98.8379 100.4C100.069 99.1697 100.069 97.1742 98.8379 95.9434C97.6071 94.7126 95.6116 94.7126 94.3808 95.9434C93.1501 97.1742 93.1501 99.1697 94.3808 100.4Z" fill="#FFE031"/>
<path id="Vector_268" d="M82.4355 112.345C81.2079 111.117 81.2024 109.121 82.4355 107.888C83.6632 106.66 85.6594 106.655 86.8926 107.888C88.1258 109.121 88.1258 111.112 86.8926 112.345C85.665 113.573 83.6687 113.578 82.4355 112.345Z" fill="#0090C3"/>
<path id="Vector_269" d="M70.4922 124.289C71.723 125.52 73.7185 125.52 74.9492 124.289C76.18 123.059 76.18 121.063 74.9492 119.832C73.7185 118.602 71.723 118.602 70.4922 119.832C69.2614 121.063 69.2614 123.059 70.4922 124.289Z" fill="#FFE031"/>
<path id="Vector_270" d="M58.5469 136.234C59.7776 137.465 61.7731 137.465 63.0039 136.234C64.2347 135.003 64.2347 133.008 63.0039 131.777C61.7731 130.546 59.7776 130.546 58.5469 131.777C57.3161 133.008 57.3161 135.003 58.5469 136.234Z" stroke="#FFE031" stroke-miterlimit="10"/>
<path id="Vector_271" d="M46.6074 148.173C45.3798 146.945 45.3742 144.949 46.6074 143.716C47.835 142.488 49.8313 142.483 51.0645 143.716C52.2976 144.949 52.2976 146.94 51.0645 148.173C49.8313 149.406 47.8405 149.406 46.6074 148.173Z" fill="#FFE031"/>
<path id="Vector_272" d="M34.6582 160.123C35.889 161.354 37.8845 161.354 39.1153 160.123C40.346 158.892 40.346 156.897 39.1153 155.666C37.8845 154.435 35.889 154.435 34.6582 155.666C33.4274 156.897 33.4274 158.892 34.6582 160.123Z" fill="#FFE031"/>
<path id="Vector_273" d="M22.7129 172.067C23.9437 173.298 25.9392 173.298 27.1699 172.067C28.4007 170.837 28.4007 168.841 27.1699 167.61C25.9392 166.38 23.9437 166.38 22.7129 167.61C21.4821 168.841 21.4821 170.837 22.7129 172.067Z" fill="#FFE031"/>
<path id="Vector_274" d="M85.1562 91.1766C86.387 92.4074 88.3825 92.4074 89.6133 91.1766C90.8441 89.9458 90.8441 87.9503 89.6133 86.7195C88.3825 85.4887 86.387 85.4887 85.1562 86.7195C83.9254 87.9503 83.9254 89.9458 85.1562 91.1766Z" stroke="#FFE031" stroke-miterlimit="10"/>
<path id="Vector_275" d="M73.2109 103.121C71.9833 101.894 71.9778 99.8972 73.2109 98.6641C74.4385 97.4365 76.4348 97.4309 77.668 98.6641C78.8956 99.8917 78.9011 101.888 77.668 103.121C76.4404 104.349 74.4385 104.349 73.2109 103.121Z" fill="#FFE031"/>
<path id="Vector_276" d="M61.2676 115.066C62.4983 116.297 64.4938 116.297 65.7246 115.066C66.9554 113.835 66.9554 111.839 65.7246 110.609C64.4938 109.378 62.4983 109.378 61.2676 110.609C60.0368 111.839 60.0368 113.835 61.2676 115.066Z" fill="#FFE031"/>
<path id="Vector_277" d="M49.3222 127.01C50.553 128.241 52.5485 128.241 53.7793 127.01C55.0101 125.779 55.0101 123.784 53.7793 122.553C52.5485 121.322 50.553 121.322 49.3222 122.553C48.0915 123.784 48.0915 125.779 49.3222 127.01Z" fill="#FFE031"/>
<path id="Vector_278" d="M37.3828 138.949C36.1551 137.721 36.1496 135.725 37.3828 134.492C38.6104 133.264 40.6067 133.259 41.8399 134.492C43.0675 135.72 43.073 137.716 41.8398 138.949C40.6067 140.182 38.6104 140.177 37.3828 138.949Z" fill="#FFE031"/>
<path id="Vector_279" d="M25.4336 150.899C26.6644 152.13 28.6599 152.13 29.8906 150.899C31.1214 149.668 31.1214 147.673 29.8906 146.442C28.6599 145.211 26.6644 145.211 25.4336 146.442C24.2028 147.673 24.2028 149.668 25.4336 150.899Z" fill="#FFE031"/>
<path id="Vector_280" d="M13.4902 162.844C14.721 164.074 16.7165 164.074 17.9473 162.844C19.1781 161.613 19.1781 159.617 17.9473 158.386C16.7165 157.156 14.721 157.156 13.4902 158.386C12.2594 159.617 12.2594 161.613 13.4902 162.844Z" fill="#FFE031"/>
</g>
<g id="Group_9">
<path id="Vector_281" d="M39.2187 211.084C37.9911 209.856 37.9856 207.86 39.2187 206.626C40.4519 205.393 42.4426 205.393 43.6758 206.626C44.9034 207.854 44.909 209.85 43.6758 211.084C42.4426 212.317 40.4519 212.317 39.2187 211.084Z" fill="#FFE031"/>
<path id="Vector_282" d="M131.568 303.433C130.341 302.205 130.335 300.209 131.568 298.976C132.802 297.742 134.792 297.742 136.025 298.976C137.253 300.203 137.259 302.2 136.025 303.433C134.792 304.666 132.802 304.666 131.568 303.433Z" fill="#FFE031"/>
<path id="Vector_283" d="M85.1172 256.981C83.8895 255.753 83.884 253.757 85.1172 252.524C86.3503 251.291 88.3411 251.291 89.5742 252.524C90.8019 253.752 90.8074 255.748 89.5742 256.981C88.3411 258.214 86.3503 258.214 85.1172 256.981Z" fill="#0090C3"/>
<path id="Vector_284" d="M177.465 349.331C176.237 348.103 176.232 346.107 177.465 344.874C178.698 343.64 180.689 343.64 181.922 344.874C183.15 346.101 183.155 348.097 181.922 349.331C180.689 350.564 178.698 350.564 177.465 349.331Z" fill="#FFE031"/>
<path id="Vector_285" d="M29.9961 201.86C31.2269 203.091 33.2224 203.091 34.4531 201.86C35.6839 200.629 35.6839 198.634 34.4531 197.403C33.2224 196.172 31.2269 196.172 29.9961 197.403C28.7653 198.634 28.7653 200.629 29.9961 201.86Z" fill="#FFE031"/>
<path id="Vector_286" d="M122.344 294.209C123.575 295.44 125.57 295.44 126.801 294.209C128.032 292.978 128.032 290.983 126.801 289.752C125.57 288.521 123.575 288.521 122.344 289.752C121.113 290.983 121.113 292.978 122.344 294.209Z" fill="#FFE031"/>
<path id="Vector_287" d="M75.8867 247.763C77.1175 248.994 79.113 248.994 80.3438 247.763C81.5746 246.532 81.5746 244.537 80.3438 243.306C79.113 242.075 77.1175 242.075 75.8867 243.306C74.6559 244.537 74.6559 246.532 75.8867 247.763Z" fill="#FFE031"/>
<path id="Vector_288" d="M168.236 340.112C169.467 341.343 171.463 341.343 172.693 340.112C173.924 338.882 173.924 336.886 172.693 335.655C171.463 334.425 169.467 334.425 168.236 335.655C167.006 336.886 167.006 338.882 168.236 340.112Z" stroke="#FFE031" stroke-miterlimit="10"/>
<path id="Vector_289" d="M20.7656 192.63C21.9964 193.861 23.9919 193.861 25.2227 192.63C26.4535 191.399 26.4535 189.404 25.2227 188.173C23.9919 186.942 21.9964 186.942 20.7656 188.173C19.5348 189.404 19.5348 191.399 20.7656 192.63Z" fill="#FFE031"/>
<path id="Vector_290" d="M113.113 284.979C114.344 286.21 116.34 286.21 117.57 284.979C118.801 283.748 118.801 281.753 117.57 280.522C116.34 279.291 114.344 279.291 113.113 280.522C111.882 281.753 111.882 283.748 113.113 284.979Z" fill="#FFE031"/>
<path id="Vector_291" d="M66.6582 238.533C67.889 239.764 69.8845 239.764 71.1153 238.533C72.346 237.302 72.346 235.306 71.1153 234.076C69.8845 232.845 67.889 232.845 66.6582 234.076C65.4274 235.306 65.4274 237.302 66.6582 238.533Z" fill="#FFE031"/>
<path id="Vector_292" d="M159.006 330.882C160.237 332.113 162.232 332.113 163.463 330.882C164.694 329.652 164.694 327.656 163.463 326.425C162.232 325.195 160.237 325.195 159.006 326.425C157.775 327.656 157.775 329.652 159.006 330.882Z" fill="#FFE031"/>
<path id="Vector_293" d="M11.5371 183.401C12.7679 184.631 14.7634 184.631 15.9942 183.401C17.2249 182.17 17.2249 180.174 15.9942 178.944C14.7634 177.713 12.7679 177.713 11.5371 178.944C10.3063 180.174 10.3063 182.17 11.5371 183.401Z" fill="#FFE031"/>
<path id="Vector_294" d="M103.885 275.75C105.116 276.98 107.111 276.98 108.342 275.75C109.573 274.519 109.573 272.523 108.342 271.292C107.111 270.062 105.116 270.062 103.885 271.292C102.654 272.523 102.654 274.519 103.885 275.75Z" fill="#FFE031"/>
<path id="Vector_295" d="M57.4277 229.304C58.6585 230.535 60.654 230.535 61.8848 229.304C63.1156 228.073 63.1156 226.077 61.8848 224.847C60.654 223.616 58.6585 223.616 57.4277 224.847C56.1969 226.077 56.1969 228.073 57.4277 229.304Z" stroke="#FFE031" stroke-miterlimit="10"/>
<path id="Vector_296" d="M149.777 321.653C151.008 322.884 153.004 322.884 154.234 321.653C155.465 320.423 155.465 318.427 154.234 317.196C153.004 315.966 151.008 315.966 149.777 317.196C148.547 318.427 148.547 320.423 149.777 321.653Z" fill="#FFE031"/>
<path id="Vector_297" d="M2.31248 174.177C3.54327 175.408 5.53876 175.408 6.76955 174.177C8.00034 172.946 8.00034 170.951 6.76955 169.72C5.53876 168.489 3.54327 168.489 2.31248 169.72C1.0817 170.951 1.0817 172.946 2.31248 174.177Z" stroke="#FFE031" stroke-miterlimit="10"/>
<path id="Vector_298" d="M94.6601 266.526C95.8909 267.757 97.8864 267.757 99.1172 266.526C100.348 265.295 100.348 263.3 99.1172 262.069C97.8864 260.838 95.8909 260.838 94.6601 262.069C93.4294 263.3 93.4294 265.295 94.6601 266.526Z" fill="#FFE031"/>
<path id="Vector_299" d="M48.2051 220.08C49.4358 221.311 51.4313 221.311 52.6621 220.08C53.8929 218.849 53.8929 216.854 52.6621 215.623C51.4313 214.392 49.4358 214.392 48.2051 215.623C46.9743 216.854 46.9743 218.849 48.2051 220.08Z" fill="#FFE031"/>
<path id="Vector_300" d="M140.553 312.43C141.784 313.661 143.779 313.661 145.01 312.43C146.241 311.199 146.241 309.203 145.01 307.973C143.779 306.742 141.784 306.742 140.553 307.973C139.322 309.203 139.322 311.199 140.553 312.43Z" fill="#FFE031"/>
</g>
</g>
</svg>
