<svg width="150" height="228" viewBox="0 0 150 228" fill="none" xmlns="http://www.w3.org/2000/svg">
<g id="Group">
<path id="Vector" d="M145.087 153.532C142.715 151.161 142.705 147.304 145.087 144.921C147.47 142.539 151.316 142.539 153.698 144.921C156.07 147.293 156.081 151.15 153.698 153.532C151.316 155.915 147.47 155.915 145.087 153.532Z" fill="#0090C3"/>
<path id="Vector_2" d="M122.013 176.609C119.641 174.237 119.63 170.381 122.013 167.998C124.385 165.626 128.241 165.616 130.624 167.998C132.996 170.37 133.006 174.227 130.624 176.609C128.241 178.992 124.395 178.992 122.013 176.609Z" fill="#FAF8EF"/>
<path id="Vector_3" d="M98.9347 199.686C96.563 197.314 96.5523 193.457 98.9347 191.075C101.317 188.692 105.163 188.692 107.546 191.075C109.918 193.447 109.928 197.303 107.546 199.686C105.163 202.068 101.317 202.068 98.9347 199.686Z" fill="#FAF8EF"/>
<path id="Vector_4" d="M75.8605 222.762C73.4887 220.391 73.4781 216.534 75.8605 214.151C78.243 211.769 82.0891 211.769 84.4715 214.151C86.8433 216.523 86.854 220.38 84.4715 222.762C82.0891 225.145 78.243 225.145 75.8605 222.762Z" fill="#0090C3"/>
<path id="Vector_5" d="M150.337 112.646C152.715 115.024 156.57 115.024 158.948 112.646C161.326 110.268 161.326 106.413 158.948 104.035C156.57 101.657 152.715 101.657 150.337 104.035C147.959 106.413 147.959 110.268 150.337 112.646Z" fill="#FAF8EF"/>
<path id="Vector_6" d="M127.259 135.723C129.637 138.101 133.492 138.101 135.87 135.723C138.248 133.345 138.248 129.49 135.87 127.112C133.492 124.734 129.637 124.734 127.259 127.112C124.881 129.49 124.881 133.345 127.259 135.723Z" fill="#FAF8EF"/>
<path id="Vector_7" d="M104.191 158.789C101.819 156.417 101.808 152.56 104.191 150.178C106.562 147.806 110.419 147.795 112.802 150.178C115.173 152.55 115.184 156.406 112.802 158.789C110.419 161.171 106.562 161.161 104.191 158.789Z" fill="#FAF8EF"/>
<path id="Vector_8" d="M81.1027 181.876C83.4806 184.254 87.3358 184.254 89.7137 181.876C92.0916 179.498 92.0916 175.643 89.7137 173.265C87.3358 170.887 83.4806 170.887 81.1027 173.265C78.7248 175.643 78.7248 179.498 81.1027 181.876Z" stroke="#FAF8EF" stroke-miterlimit="10"/>
<path id="Vector_9" d="M58.0285 204.953C60.4063 207.331 64.2616 207.331 66.6395 204.953C69.0174 202.575 69.0174 198.72 66.6395 196.342C64.2616 193.964 60.4063 193.964 58.0285 196.342C55.6506 198.72 55.6506 202.575 58.0285 204.953Z" fill="#FAF8EF"/>
<path id="Vector_10" d="M132.503 94.8152C134.881 97.1931 138.736 97.1931 141.114 94.8152C143.492 92.4373 143.492 88.5821 141.114 86.2042C138.736 83.8263 134.881 83.8263 132.503 86.2042C130.125 88.5821 130.125 92.4373 132.503 94.8152Z" fill="#FAF8EF"/>
<path id="Vector_11" d="M109.425 117.892C111.803 120.27 115.658 120.27 118.036 117.892C120.414 115.514 120.414 111.659 118.036 109.281C115.658 106.903 111.803 106.903 109.425 109.281C107.047 111.659 107.047 115.514 109.425 117.892Z" fill="#FAF8EF"/>
<path id="Vector_12" d="M86.3624 140.958C83.9907 138.586 83.98 134.729 86.3624 132.347C88.7342 129.975 92.591 129.965 94.9735 132.347C97.3559 134.729 97.3559 138.576 94.9734 140.958C92.591 143.341 88.7449 143.341 86.3624 140.958Z" fill="#0090C3"/>
<path id="Vector_13" d="M63.2726 164.045C65.6505 166.423 69.5058 166.423 71.8836 164.045C74.2615 161.667 74.2615 157.812 71.8836 155.434C69.5058 153.056 65.6505 153.056 63.2726 155.434C60.8948 157.812 60.8948 161.667 63.2726 164.045Z" fill="#FAF8EF"/>
<path id="Vector_14" d="M40.1984 187.122C42.5763 189.5 46.4315 189.5 48.8094 187.122C51.1873 184.744 51.1873 180.889 48.8094 178.511C46.4315 176.133 42.5763 176.133 40.1984 178.511C37.8205 180.889 37.8205 184.744 40.1984 187.122Z" fill="#FAF8EF"/>
<path id="Vector_15" d="M137.749 53.9075C135.377 51.5357 135.367 47.6789 137.749 45.2965C140.121 42.9247 143.978 42.914 146.36 45.2965C148.743 47.6789 148.743 51.525 146.36 53.9075C143.988 56.2793 140.132 56.2899 137.749 53.9075Z" fill="#0090C3"/>
<path id="Vector_16" d="M114.675 76.9841C117.053 79.362 120.908 79.362 123.286 76.9841C125.664 74.6063 125.664 70.751 123.286 68.3731C120.908 65.9953 117.053 65.9953 114.675 68.3731C112.297 70.751 112.297 74.6063 114.675 76.9841Z" fill="#FAF8EF"/>
<path id="Vector_17" d="M91.5968 100.061C93.9747 102.439 97.83 102.439 100.208 100.061C102.586 97.6829 102.586 93.8277 100.208 91.4498C97.83 89.0719 93.9747 89.0719 91.5968 91.4498C89.219 93.8277 89.219 97.6829 91.5968 100.061Z" stroke="#FAF8EF" stroke-miterlimit="10"/>
<path id="Vector_18" d="M68.5284 123.127C66.1567 120.755 66.146 116.898 68.5284 114.516C70.9002 112.144 74.757 112.133 77.1395 114.516C79.5219 116.898 79.5219 120.744 77.1395 123.127C74.757 125.509 70.9109 125.509 68.5284 123.127Z" fill="#FAF8EF"/>
<path id="Vector_19" d="M45.4425 146.214C47.8204 148.592 51.6757 148.592 54.0536 146.214C56.4314 143.836 56.4314 139.981 54.0536 137.603C51.6757 135.225 47.8204 135.225 45.4425 137.603C43.0647 139.981 43.0647 143.836 45.4425 146.214Z" fill="#FAF8EF"/>
<path id="Vector_20" d="M22.3644 169.291C24.7423 171.669 28.5976 171.669 30.9754 169.291C33.3533 166.913 33.3533 163.058 30.9754 160.68C28.5976 158.302 24.7423 158.302 22.3644 160.68C19.9865 163.058 19.9866 166.913 22.3644 169.291Z" fill="#FAF8EF"/>
<path id="Vector_21" d="M143.005 13.0105C145.383 15.3884 149.238 15.3884 151.616 13.0105C153.994 10.6326 153.994 6.77737 151.616 4.3995C149.238 2.02163 145.383 2.02163 143.005 4.3995C140.627 6.77737 140.627 10.6326 143.005 13.0105Z" stroke="#FAF8EF" stroke-miterlimit="10"/>
<path id="Vector_22" d="M119.931 36.0872C117.559 33.7154 117.548 29.8586 119.931 27.4762C122.303 25.1044 126.159 25.0937 128.542 27.4762C130.914 29.8479 130.924 33.7047 128.542 36.0872C126.17 38.4589 122.303 38.4589 119.931 36.0872Z" fill="#FAF8EF"/>
<path id="Vector_23" d="M96.8527 59.1638C99.2306 61.5417 103.086 61.5417 105.464 59.1638C107.842 56.786 107.842 52.9307 105.464 50.5528C103.086 48.175 99.2306 48.175 96.8527 50.5528C94.4748 52.9307 94.4748 56.786 96.8527 59.1638Z" fill="#FAF8EF"/>
<path id="Vector_24" d="M73.7746 82.2405C76.1524 84.6184 80.0077 84.6184 82.3856 82.2405C84.7634 79.8626 84.7635 76.0073 82.3856 73.6295C80.0077 71.2516 76.1524 71.2516 73.7746 73.6295C71.3967 76.0073 71.3967 79.8626 73.7746 82.2405Z" fill="#FAF8EF"/>
<path id="Vector_25" d="M50.7062 105.306C48.3344 102.935 48.3237 99.0779 50.7062 96.6954C53.0779 94.3237 56.9348 94.3129 59.3172 96.6954C61.689 99.0672 61.6996 102.924 59.3172 105.306C56.9347 107.689 53.0779 107.678 50.7062 105.306Z" fill="#FAF8EF"/>
<path id="Vector_26" d="M27.6222 128.394C30.0001 130.772 33.8554 130.772 36.2332 128.394C38.6111 126.016 38.6111 122.161 36.2332 119.783C33.8554 117.405 30.0001 117.405 27.6222 119.783C25.2444 122.161 25.2444 126.016 27.6222 128.394Z" fill="#FAF8EF"/>
<path id="Vector_27" d="M4.54606 151.47C6.92392 153.848 10.7792 153.848 13.1571 151.47C15.5349 149.093 15.5349 145.237 13.1571 142.859C10.7792 140.482 6.92392 140.482 4.54606 142.859C2.16819 145.237 2.16819 149.093 4.54606 151.47Z" fill="#FAF8EF"/>
</g>
</svg>
